STARTFONT 2.1
FONT -FontForge-Good Times Rg-Book-R-Normal--28-200-100-100-P-207-ISO10646-1
SIZE 20 100 100
FONTBOUNDINGBOX 56 33 -8 -6
COMMENT "Generated by fontforge, http://fontforge.sourceforge.net"
COMMENT "(c) 1998-2012 Typodermic Fonts Inc. See attached license agreement. If agreement is missing visit typodermicfonts.com for more info. Languages by Chikako Larabie"
STARTPROPERTIES 39
FOUNDRY "FontForge"
FAMILY_NAME "Good Times Rg"
WEIGHT_NAME "Book"
SLANT "R"
SETWIDTH_NAME "Normal"
ADD_STYLE_NAME ""
PIXEL_SIZE 28
POINT_SIZE 200
RESOLUTION_X 100
RESOLUTION_Y 100
SPACING "P"
AVERAGE_WIDTH 207
CHARSET_REGISTRY "ISO10646"
CHARSET_ENCODING "1"
FONTNAME_REGISTRY ""
CHARSET_COLLECTIONS "ISO8859-2 ISO8859-9 ISO8859-4 ISO10646-1"
FONT_NAME "GoodTimesRg-Regular"
FACE_NAME "GoodTimesRg-Regular"
COPYRIGHT "(c) 1998-2012 Typodermic Fonts Inc. See attached license agreement. If agreement is missing visit typodermicfonts.com for more info. Languages by Chikako Larabie"
FONT_VERSION "4.001"
FONT_ASCENT 22
FONT_DESCENT 6
UNDERLINE_POSITION -4
UNDERLINE_THICKNESS 1
X_HEIGHT 19
CAP_HEIGHT 19
RAW_ASCENT 799
RAW_DESCENT 201
NORM_SPACE 8
RELATIVE_WEIGHT 40
RELATIVE_SETWIDTH 50
SUPERSCRIPT_X 0
SUPERSCRIPT_Y 8
SUPERSCRIPT_SIZE 8
SUBSCRIPT_X 0
SUBSCRIPT_Y 0
SUBSCRIPT_SIZE 8
AVG_LOWERCASE_WIDTH 238
AVG_UPPERCASE_WIDTH 237
ENDPROPERTIES
CHARS 304
STARTCHAR space
ENCODING 32
SWIDTH 294 0
DWIDTH 8 0
BBX 1 1 0 0
BITMAP
00
ENDCHAR
STARTCHAR exclam
ENCODING 33
SWIDTH 298 0
DWIDTH 8 0
BBX 4 20 2 0
BITMAP
F0
F0
F0
F0
F0
F0
F0
F0
F0
F0
F0
F0
F0
F0
00
00
20
F0
F0
70
ENDCHAR
STARTCHAR quotedbl
ENCODING 34
SWIDTH 452 0
DWIDTH 13 0
BBX 9 7 2 13
BITMAP
F780
E780
E780
E700
E300
E300
E300
ENDCHAR
STARTCHAR numbersign
ENCODING 35
SWIDTH 697 0
DWIDTH 20 0
BBX 17 20 1 0
BITMAP
01C300
018700
038700
038600
030600
3FFF80
3FFF80
060C00
061C00
0E1800
0C1800
0C3800
FFFE00
FFFE00
187000
387000
386000
30E000
30E000
70C000
ENDCHAR
STARTCHAR dollar
ENCODING 36
SWIDTH 744 0
DWIDTH 21 0
BBX 17 20 2 0
BITMAP
008000
008000
3FFF00
7FFF00
FFFF00
E08000
E08000
E08000
E08000
7FFE00
3FFF00
008380
008380
008380
008380
FFFF80
FFFF00
FFFE00
008000
008000
ENDCHAR
STARTCHAR percent
ENCODING 37
SWIDTH 965 0
DWIDTH 27 0
BBX 25 23 1 -2
BITMAP
1F000C00
3F801800
60C03000
C0607000
C0606000
C060C000
C0418000
60C38000
3F870000
1F060000
000C0000
00187C00
0038FE00
00718300
00630180
00C30180
01830180
03810180
07018300
0600FE00
0C007C00
18000000
38000000
ENDCHAR
STARTCHAR ampersand
ENCODING 38
SWIDTH 759 0
DWIDTH 21 0
BBX 19 20 1 0
BITMAP
0FE000
3FE000
7FE000
7FE000
780000
700000
700000
780000
3FFFC0
1FFFC0
3FFFC0
7FFFC0
700F00
F00F00
F00F00
700F00
7FFFE0
7FFFE0
3FFFE0
0FFFE0
ENDCHAR
STARTCHAR quotesingle
ENCODING 39
SWIDTH 255 0
DWIDTH 7 0
BBX 3 7 2 13
BITMAP
E0
E0
E0
E0
E0
E0
E0
ENDCHAR
STARTCHAR parenleft
ENCODING 40
SWIDTH 356 0
DWIDTH 10 0
BBX 5 25 3 -2
BITMAP
38
38
30
70
60
60
E0
E0
C0
C0
C0
C0
C0
C0
C0
C0
C0
C0
E0
60
60
70
30
30
38
ENDCHAR
STARTCHAR parenright
ENCODING 41
SWIDTH 355 0
DWIDTH 10 0
BBX 5 25 2 -2
BITMAP
E0
E0
60
70
30
30
38
38
18
18
18
18
18
18
18
18
18
38
38
30
30
70
60
E0
E0
ENDCHAR
STARTCHAR asterisk
ENCODING 42
SWIDTH 469 0
DWIDTH 13 0
BBX 9 9 2 11
BITMAP
0800
0800
8880
FF80
7F00
1C00
3600
7300
2200
ENDCHAR
STARTCHAR plus
ENCODING 43
SWIDTH 690 0
DWIDTH 19 0
BBX 16 16 2 2
BITMAP
0380
0380
0380
0380
0380
0380
0380
FFFF
FFFF
0380
0380
0380
0380
0380
0380
0380
ENDCHAR
STARTCHAR comma
ENCODING 44
SWIDTH 259 0
DWIDTH 7 0
BBX 3 7 2 -3
BITMAP
E0
E0
E0
E0
E0
C0
C0
ENDCHAR
STARTCHAR hyphen
ENCODING 45
SWIDTH 296 0
DWIDTH 8 0
BBX 7 2 1 9
BITMAP
FE
FE
ENDCHAR
STARTCHAR period
ENCODING 46
SWIDTH 262 0
DWIDTH 7 0
BBX 4 4 2 0
BITMAP
40
E0
F0
E0
ENDCHAR
STARTCHAR slash
ENCODING 47
SWIDTH 444 0
DWIDTH 12 0
BBX 12 20 0 0
BITMAP
0030
0060
0060
00E0
00C0
01C0
0180
0380
0300
0700
0600
0E00
0C00
1C00
1800
3800
3000
7000
6000
E000
ENDCHAR
STARTCHAR zero
ENCODING 48
SWIDTH 838 0
DWIDTH 23 0
BBX 21 20 1 0
BITMAP
01FC00
07FF00
1FFFC0
3FFFE0
3E01F0
7800F0
780078
F00078
F00038
F00038
F00038
F00038
700078
780078
7800F0
3E01F0
1FFFE0
0FFFC0
07FF00
01FC00
ENDCHAR
STARTCHAR one
ENCODING 49
SWIDTH 385 0
DWIDTH 11 0
BBX 8 20 1 0
BITMAP
F8
FC
FE
FE
0F
0F
0F
0F
0F
0F
0F
0F
0F
0F
0F
0F
0F
0F
0F
0F
ENDCHAR
STARTCHAR two
ENCODING 50
SWIDTH 825 0
DWIDTH 23 0
BBX 20 20 2 0
BITMAP
FFFF00
FFFFC0
FFFFE0
FFFFE0
0000F0
0000F0
0000F0
0001E0
1FFFE0
7FFFC0
7FFF80
FFFC00
F00000
E00000
E00000
E00000
FFFFE0
FFFFE0
FFFFE0
FFFFE0
ENDCHAR
STARTCHAR three
ENCODING 51
SWIDTH 827 0
DWIDTH 23 0
BBX 21 20 1 0
BITMAP
FFFF80
FFFFE0
FFFFF0
FFFFF0
0000F0
000070
000070
0000F0
07FFE0
07FFC0
07FFF0
07FFF0
000078
000078
000078
000078
FFFFF0
FFFFF0
FFFFE0
FFFF80
ENDCHAR
STARTCHAR four
ENCODING 52
SWIDTH 845 0
DWIDTH 24 0
BBX 22 20 1 0
BITMAP
F001E0
F001E0
F001E0
F001E0
F001E0
F001E0
F001E0
F001E0
F001E0
F001E0
7801E0
7FFFFC
3FFFFC
1FFFFC
03FFFC
0001E0
0001E0
0001E0
0001E0
0001E0
ENDCHAR
STARTCHAR five
ENCODING 53
SWIDTH 885 0
DWIDTH 25 0
BBX 21 20 2 0
BITMAP
FFFFF0
FFFFF0
FFFFF0
FFFFF0
E00000
E00000
E00000
E00000
FFFFC0
FFFFF0
FFFFF8
FFFFF8
000038
000038
000038
000078
FFFFF8
FFFFF0
FFFFF0
FFFFC0
ENDCHAR
STARTCHAR six
ENCODING 54
SWIDTH 872 0
DWIDTH 24 0
BBX 22 20 1 0
BITMAP
03FFF8
0FFFF8
3FFFF8
3FFFF8
7C0000
780000
F00000
F00000
FFFFE0
FFFFF0
FFFFF8
FFFFFC
F0003C
70003C
78003C
7C003C
3FFFF8
1FFFF8
0FFFF0
03FFE0
ENDCHAR
STARTCHAR seven
ENCODING 55
SWIDTH 756 0
DWIDTH 21 0
BBX 20 20 1 0
BITMAP
FFFFE0
FFFFF0
FFFFE0
FFFFE0
0007C0
000780
000F00
001E00
003E00
007C00
00F800
00F000
01E000
03C000
07C000
0F8000
1F0000
3E0000
3C0000
F80000
ENDCHAR
STARTCHAR eight
ENCODING 56
SWIDTH 898 0
DWIDTH 25 0
BBX 23 20 1 0
BITMAP
0FFFE0
3FFFF8
7FFFFC
7FFFFC
78003C
70001C
70001C
78003C
3FFFF8
1FFFF0
3FFFF8
7FFFFC
70001E
F0001E
F0001E
78001E
7FFFFC
7FFFFC
3FFFF8
0FFFE0
ENDCHAR
STARTCHAR nine
ENCODING 57
SWIDTH 861 0
DWIDTH 24 0
BBX 22 20 1 0
BITMAP
0FFF00
3FFFC0
7FFFE0
7FFFF0
F000F8
F00078
F0003C
F0003C
F8003C
7FFFFC
7FFFFC
3FFFFC
07FFFC
00003C
000078
0000F8
3FFFF0
3FFFF0
3FFFE0
3FFF00
ENDCHAR
STARTCHAR colon
ENCODING 58
SWIDTH 262 0
DWIDTH 7 0
BBX 4 13 2 0
BITMAP
40
E0
F0
E0
00
00
00
00
00
40
E0
F0
E0
ENDCHAR
STARTCHAR semicolon
ENCODING 59
SWIDTH 262 0
DWIDTH 7 0
BBX 4 16 2 -3
BITMAP
40
E0
F0
E0
00
00
00
00
00
E0
E0
E0
E0
E0
C0
C0
ENDCHAR
STARTCHAR less
ENCODING 60
SWIDTH 690 0
DWIDTH 19 0
BBX 16 15 2 3
BITMAP
0001
0007
003F
00FC
03E0
1F80
7C00
F000
F800
3E00
0FC0
03F0
007E
001F
0003
ENDCHAR
STARTCHAR equal
ENCODING 61
SWIDTH 690 0
DWIDTH 19 0
BBX 16 10 2 5
BITMAP
FFFF
FFFF
0000
0000
0000
0000
0000
0000
FFFF
FFFF
ENDCHAR
STARTCHAR greater
ENCODING 62
SWIDTH 690 0
DWIDTH 19 0
BBX 16 15 2 3
BITMAP
8000
C000
F800
7E00
0FC0
03F0
007E
000F
001E
00FC
03E0
1F80
FC00
F000
C000
ENDCHAR
STARTCHAR question
ENCODING 63
SWIDTH 776 0
DWIDTH 22 0
BBX 20 20 1 0
BITMAP
FFFF80
FFFFC0
FFFFE0
FFFFF0
0000F0
0000F0
0000F0
0001F0
0FFFE0
1FFFE0
3FFF80
3FFC00
3C0000
3C0000
000000
000000
100000
3C0000
3C0000
180000
ENDCHAR
STARTCHAR at
ENCODING 64
SWIDTH 833 0
DWIDTH 23 0
BBX 21 20 1 0
BITMAP
01FFF8
07FFF8
0FFFF8
1E0038
380038
700038
70FE38
E1FE38
E38638
E38638
E30638
E38638
E38638
71FFF8
70FFF8
380000
3E0000
1FFFF8
07FFF8
01FFF8
ENDCHAR
STARTCHAR A
ENCODING 65
SWIDTH 989 0
DWIDTH 28 0
BBX 27 20 0 0
BITMAP
00060000
000F0000
001F0000
001F8000
003FC000
007BC000
0079E000
00F1F000
00F0F000
01E07800
03C07800
03C03C00
078FFE00
0F1FFE00
0F3FFF00
1E000F00
1E000780
3C0007C0
780003C0
F80001E0
ENDCHAR
STARTCHAR B
ENCODING 66
SWIDTH 891 0
DWIDTH 25 0
BBX 22 20 2 0
BITMAP
FFFFC0
FFFFF0
FFFFF8
FFFFF8
E00078
E00038
E00038
E00078
E3FFF0
E3FFE0
E3FFF0
E3FFF8
E00038
E0003C
E0003C
E00078
FFFFF8
FFFFF8
FFFFF0
FFFFC0
ENDCHAR
STARTCHAR C
ENCODING 67
SWIDTH 829 0
DWIDTH 23 0
BBX 21 20 1 0
BITMAP
01FFF8
07FFF8
1FFFF8
3FFFF8
3E0000
780000
780000
F00000
F00000
F00000
F00000
F00000
F00000
780000
780000
3E0000
3FFFF8
1FFFF8
07FFF8
01FFF8
ENDCHAR
STARTCHAR D
ENCODING 68
SWIDTH 879 0
DWIDTH 25 0
BBX 21 20 2 0
BITMAP
FFFE00
FFFF80
FFFFC0
FFFFE0
E001F0
E000F8
E00078
E00078
E00038
E00038
E00038
E00038
E00078
E00078
E000F0
E001F0
FFFFE0
FFFFC0
FFFF80
FFFE00
ENDCHAR
STARTCHAR E
ENCODING 69
SWIDTH 759 0
DWIDTH 21 0
BBX 18 20 2 0
BITMAP
FFFFC0
FFFFC0
FFFFC0
FFFFC0
E00000
E00000
E00000
E00000
E3FF80
E3FF80
E3FF80
E3FF80
E00000
E00000
E00000
E00000
FFFFC0
FFFFC0
FFFFC0
FFFFC0
ENDCHAR
STARTCHAR F
ENCODING 70
SWIDTH 705 0
DWIDTH 20 0
BBX 17 20 2 0
BITMAP
FFFF80
FFFF80
FFFF80
FFFF80
E00000
E00000
E00000
E00000
E3FF00
E3FF00
E3FF00
E3FF00
E00000
E00000
E00000
E00000
E00000
E00000
E00000
E00000
ENDCHAR
STARTCHAR G
ENCODING 71
SWIDTH 888 0
DWIDTH 25 0
BBX 22 20 1 0
BITMAP
01FFF8
07FFF8
1FFFF8
3FFFF8
3E0000
780000
780000
F00000
F03FFC
F03FFC
F03FFC
F03FFC
F0001C
78001C
78001C
3E001C
3FFFFC
1FFFFC
07FFFC
01FFFC
ENDCHAR
STARTCHAR H
ENCODING 72
SWIDTH 838 0
DWIDTH 23 0
BBX 20 20 2 0
BITMAP
E000F0
E000F0
E000F0
E000F0
E000F0
E000F0
E000F0
E000F0
E3FFF0
E3FFF0
E3FFF0
E3FFF0
E000F0
E000F0
E000F0
E000F0
E000F0
E000F0
E000F0
E000F0
ENDCHAR
STARTCHAR I
ENCODING 73
SWIDTH 267 0
DWIDTH 7 0
BBX 4 20 2 0
BITMAP
F0
F0
F0
F0
F0
F0
F0
F0
F0
F0
F0
F0
F0
F0
F0
F0
F0
F0
F0
F0
ENDCHAR
STARTCHAR J
ENCODING 74
SWIDTH 708 0
DWIDTH 20 0
BBX 17 20 1 0
BITMAP
000380
000380
000380
000380
000380
000380
000380
000380
000380
000380
000380
000380
000380
000780
000780
000F80
FFFF00
FFFE00
FFFC00
FFE000
ENDCHAR
STARTCHAR K
ENCODING 75
SWIDTH 875 0
DWIDTH 25 0
BBX 22 20 2 0
BITMAP
E001FC
E003F0
E007C0
E01F80
E03F00
E07C00
E1F800
E3E000
E7C000
EF8000
E78000
E3C000
E1F000
E0F800
E07E00
E01F00
E00F80
E007E0
E001F0
E000FC
ENDCHAR
STARTCHAR L
ENCODING 76
SWIDTH 707 0
DWIDTH 20 0
BBX 17 20 2 0
BITMAP
E00000
E00000
E00000
E00000
E00000
E00000
E00000
E00000
E00000
E00000
E00000
E00000
E00000
E00000
E00000
E00000
FFFF80
FFFF80
FFFF80
FFFF80
ENDCHAR
STARTCHAR M
ENCODING 77
SWIDTH 1115 0
DWIDTH 31 0
BBX 30 20 1 0
BITMAP
07000700
07800700
07800F80
0FC00F80
0FC01F80
0FC01FC0
1FE01FC0
1EE03DC0
1CF039C0
1C7079E0
3C7871E0
3C78F0E0
383CE0F0
783DE0F0
781DC070
701FC070
700F8078
F00F8078
F0078038
E007003C
ENDCHAR
STARTCHAR N
ENCODING 78
SWIDTH 873 0
DWIDTH 24 0
BBX 21 20 2 0
BITMAP
E00078
F00078
F80078
FC0078
FE0078
FF0078
EF8078
E7C078
E3E078
E1F078
E0F878
E07C78
E03E78
E01F78
E00FF8
E007F8
E003F8
E000F8
E00078
E00030
ENDCHAR
STARTCHAR O
ENCODING 79
SWIDTH 968 0
DWIDTH 27 0
BBX 25 20 1 0
BITMAP
01FFC000
07FFF800
1FFFFC00
3FFFFE00
3E001F00
78000F00
78000F00
F0000780
F0000780
F0000780
F0000780
F0000780
F0000780
78000F00
78000F00
3E001E00
3FFFFE00
1FFFFC00
07FFF000
01FFC000
ENDCHAR
STARTCHAR P
ENCODING 80
SWIDTH 867 0
DWIDTH 24 0
BBX 22 20 2 0
BITMAP
FFFF80
FFFFE0
FFFFF0
FFFFF8
E00078
E00038
E00038
E0003C
E00038
E00078
E000F8
E3FFF0
E3FFF0
E3FFC0
E3FE00
E00000
E00000
E00000
E00000
E00000
ENDCHAR
STARTCHAR Q
ENCODING 81
SWIDTH 968 0
DWIDTH 27 0
BBX 26 20 1 0
BITMAP
01FFC000
07FFF800
1FFFFC00
3FFFFE00
3E001F00
78000F00
78000F00
F0000780
F0000780
F0000780
F0000780
F0100780
F00F8780
7807CF00
7803EF00
3E00FE00
3FFFFE00
1FFFFE00
07FFFF00
01FFC7C0
ENDCHAR
STARTCHAR R
ENCODING 82
SWIDTH 921 0
DWIDTH 26 0
BBX 24 20 2 0
BITMAP
FFFF80
FFFFE0
FFFFF0
FFFFF8
E00078
E0003C
E0003C
E0003C
E0003C
E0003C
E00078
E3FFF8
E3FFF0
E3FFE0
E3FFC0
E003E0
E001F0
E000F8
E0007C
E0003F
ENDCHAR
STARTCHAR S
ENCODING 83
SWIDTH 880 0
DWIDTH 25 0
BBX 22 20 1 0
BITMAP
0FFFF8
3FFFF8
7FFFF8
7FFFF8
780000
F00000
F00000
780000
7FFFE0
3FFFF8
1FFFFC
03FFFC
00001C
00001C
00001C
00003C
7FFFFC
7FFFF8
7FFFF8
7FFFE0
ENDCHAR
STARTCHAR T
ENCODING 84
SWIDTH 720 0
DWIDTH 20 0
BBX 19 20 1 0
BITMAP
FFFFE0
FFFFE0
FFFFE0
FFFFE0
01E000
01E000
01E000
01E000
01E000
01E000
01E000
01E000
01E000
01E000
01E000
01E000
01E000
01E000
01E000
01E000
ENDCHAR
STARTCHAR U
ENCODING 85
SWIDTH 889 0
DWIDTH 25 0
BBX 22 20 1 0
BITMAP
F0001C
F0001C
F0001C
F0001C
F0001C
F0001C
F0001C
F0001C
F0001C
F0001C
F0001C
F0001C
70001C
78001C
78003C
7C007C
3FFFF8
1FFFF0
0FFFE0
03FF00
ENDCHAR
STARTCHAR V
ENCODING 86
SWIDTH 989 0
DWIDTH 28 0
BBX 27 20 0 0
BITMAP
F80001E0
7C0003C0
3C0003C0
1E000780
1E000F00
0F000F00
0F801E00
07801E00
03C03C00
03C07800
01E07800
00F0F000
00F0F000
0079E000
007FC000
003FC000
001F8000
001F0000
000F0000
00060000
ENDCHAR
STARTCHAR W
ENCODING 87
SWIDTH 1268 0
DWIDTH 36 0
BBX 35 20 0 0
BITMAP
F81E0001E0
781F0003C0
3C0F0003C0
3E07800780
1E07800780
1F03C00F00
0F03C00E00
0781E01E00
0781E03C00
03C0F03C00
03C0F07800
01E1F87800
01E3F8F000
00F3FCF000
00FFBDE000
007F1FC000
003F0FC000
003E0F8000
001E078000
001C070000
ENDCHAR
STARTCHAR X
ENCODING 88
SWIDTH 1000 0
DWIDTH 28 0
BBX 26 20 1 0
BITMAP
FC000F80
3E001F00
1F003E00
0F807C00
07C0F800
03E1F000
01F3E000
00FFC000
007F8000
003E0000
003F0000
007F8000
00F7C000
01E3E000
07C1F000
0F80F800
1F007C00
3E001F00
7C000F80
F80007C0
ENDCHAR
STARTCHAR Y
ENCODING 89
SWIDTH 926 0
DWIDTH 26 0
BBX 26 20 0 0
BITMAP
FC0007C0
3C000F00
1E001E00
1F003E00
0F807C00
07C0F800
03E0F000
01E1E000
00F3C000
007F8000
007F0000
003F0000
001E0000
001E0000
001E0000
001E0000
001E0000
001E0000
001E0000
001E0000
ENDCHAR
STARTCHAR Z
ENCODING 90
SWIDTH 802 0
DWIDTH 22 0
BBX 20 20 1 0
BITMAP
FFFFF0
FFFFF0
FFFFF0
FFFFE0
0007C0
000F80
001F00
003E00
007C00
00F800
01F000
03E000
07C000
0F8000
1F0000
3E0000
7FFFF0
FFFFF0
FFFFF0
7FFFF0
ENDCHAR
STARTCHAR bracketleft
ENCODING 91
SWIDTH 333 0
DWIDTH 9 0
BBX 5 25 3 -2
BITMAP
F8
F8
C0
C0
C0
C0
C0
C0
C0
C0
C0
C0
C0
C0
C0
C0
C0
C0
C0
C0
C0
C0
C0
F8
F8
ENDCHAR
STARTCHAR backslash
ENCODING 92
SWIDTH 445 0
DWIDTH 12 0
BBX 12 20 0 0
BITMAP
E000
6000
7000
3000
3800
1800
1C00
0C00
0E00
0600
0700
0300
0380
0180
01C0
00C0
00E0
0060
0060
0070
ENDCHAR
STARTCHAR bracketright
ENCODING 93
SWIDTH 333 0
DWIDTH 9 0
BBX 5 25 2 -2
BITMAP
F8
F8
38
38
38
38
38
38
38
38
38
38
38
38
38
38
38
38
38
38
38
38
38
F8
F8
ENDCHAR
STARTCHAR asciicircum
ENCODING 94
SWIDTH 559 0
DWIDTH 16 0
BBX 12 12 2 8
BITMAP
0600
0E00
0F00
1F00
1B80
1980
31C0
30C0
70C0
60E0
E060
C070
ENDCHAR
STARTCHAR underscore
ENCODING 95
SWIDTH 668 0
DWIDTH 19 0
BBX 19 2 0 -4
BITMAP
FFFFE0
FFFFE0
ENDCHAR
STARTCHAR grave
ENCODING 96
SWIDTH 362 0
DWIDTH 10 0
BBX 8 4 1 21
BITMAP
C0
F8
3F
03
ENDCHAR
STARTCHAR a
ENCODING 97
SWIDTH 989 0
DWIDTH 28 0
BBX 27 20 0 0
BITMAP
00060000
000F0000
001F0000
001F8000
003FC000
007BC000
0079E000
00F1F000
00F0F000
01E07800
03C07800
03C03C00
078FFE00
0F1FFE00
0F3FFF00
1E000F00
1E000780
3C0007C0
780003C0
F80001E0
ENDCHAR
STARTCHAR b
ENCODING 98
SWIDTH 891 0
DWIDTH 25 0
BBX 22 20 2 0
BITMAP
FFFFC0
FFFFF0
FFFFF8
FFFFF8
E00078
E00038
E00038
E00078
E3FFF0
E3FFE0
E3FFF0
E3FFF8
E00038
E0003C
E0003C
E00078
FFFFF8
FFFFF8
FFFFF0
FFFFC0
ENDCHAR
STARTCHAR c
ENCODING 99
SWIDTH 829 0
DWIDTH 23 0
BBX 21 20 1 0
BITMAP
01FFF8
07FFF8
1FFFF8
3FFFF8
3E0000
780000
780000
F00000
F00000
F00000
F00000
F00000
F00000
780000
780000
3E0000
3FFFF8
1FFFF8
07FFF8
01FFF8
ENDCHAR
STARTCHAR d
ENCODING 100
SWIDTH 879 0
DWIDTH 25 0
BBX 21 20 2 0
BITMAP
FFFE00
FFFF80
FFFFC0
FFFFE0
E001F0
E000F8
E00078
E00078
E00038
E00038
E00038
E00038
E00078
E00078
E000F0
E001F0
FFFFE0
FFFFC0
FFFF80
FFFE00
ENDCHAR
STARTCHAR e
ENCODING 101
SWIDTH 759 0
DWIDTH 21 0
BBX 18 20 2 0
BITMAP
FFFFC0
FFFFC0
FFFFC0
FFFFC0
E00000
E00000
E00000
E00000
E3FF80
E3FF80
E3FF80
E3FF80
E00000
E00000
E00000
E00000
FFFFC0
FFFFC0
FFFFC0
FFFFC0
ENDCHAR
STARTCHAR f
ENCODING 102
SWIDTH 705 0
DWIDTH 20 0
BBX 17 20 2 0
BITMAP
FFFF80
FFFF80
FFFF80
FFFF80
E00000
E00000
E00000
E00000
E3FF00
E3FF00
E3FF00
E3FF00
E00000
E00000
E00000
E00000
E00000
E00000
E00000
E00000
ENDCHAR
STARTCHAR g
ENCODING 103
SWIDTH 888 0
DWIDTH 25 0
BBX 22 20 1 0
BITMAP
01FFF8
07FFF8
1FFFF8
3FFFF8
3E0000
780000
780000
F00000
F03FFC
F03FFC
F03FFC
F03FFC
F0001C
78001C
78001C
3E001C
3FFFFC
1FFFFC
07FFFC
01FFFC
ENDCHAR
STARTCHAR h
ENCODING 104
SWIDTH 838 0
DWIDTH 23 0
BBX 20 20 2 0
BITMAP
E000F0
E000F0
E000F0
E000F0
E000F0
E000F0
E000F0
E000F0
E3FFF0
E3FFF0
E3FFF0
E3FFF0
E000F0
E000F0
E000F0
E000F0
E000F0
E000F0
E000F0
E000F0
ENDCHAR
STARTCHAR i
ENCODING 105
SWIDTH 267 0
DWIDTH 7 0
BBX 4 20 2 0
BITMAP
F0
F0
F0
F0
F0
F0
F0
F0
F0
F0
F0
F0
F0
F0
F0
F0
F0
F0
F0
F0
ENDCHAR
STARTCHAR j
ENCODING 106
SWIDTH 708 0
DWIDTH 20 0
BBX 17 20 1 0
BITMAP
000380
000380
000380
000380
000380
000380
000380
000380
000380
000380
000380
000380
000380
000780
000780
000F80
FFFF00
FFFE00
FFFC00
FFE000
ENDCHAR
STARTCHAR k
ENCODING 107
SWIDTH 875 0
DWIDTH 25 0
BBX 22 20 2 0
BITMAP
E001FC
E003F0
E007C0
E01F80
E03F00
E07C00
E1F800
E3E000
E7C000
EF8000
E78000
E3C000
E1F000
E0F800
E07E00
E01F00
E00F80
E007E0
E001F0
E000FC
ENDCHAR
STARTCHAR l
ENCODING 108
SWIDTH 707 0
DWIDTH 20 0
BBX 17 20 2 0
BITMAP
E00000
E00000
E00000
E00000
E00000
E00000
E00000
E00000
E00000
E00000
E00000
E00000
E00000
E00000
E00000
E00000
FFFF80
FFFF80
FFFF80
FFFF80
ENDCHAR
STARTCHAR m
ENCODING 109
SWIDTH 1115 0
DWIDTH 31 0
BBX 30 20 1 0
BITMAP
07000700
07800700
07800F80
0FC00F80
0FC01F80
0FC01FC0
1FE01FC0
1EE03DC0
1CF039C0
1C7079E0
3C7871E0
3C78F0E0
383CE0F0
783DE0F0
781DC070
701FC070
700F8078
F00F8078
F0078038
E007003C
ENDCHAR
STARTCHAR n
ENCODING 110
SWIDTH 873 0
DWIDTH 24 0
BBX 21 20 2 0
BITMAP
E00078
F00078
F80078
FC0078
FE0078
FF0078
EF8078
E7C078
E3E078
E1F078
E0F878
E07C78
E03E78
E01F78
E00FF8
E007F8
E003F8
E000F8
E00078
E00030
ENDCHAR
STARTCHAR o
ENCODING 111
SWIDTH 968 0
DWIDTH 27 0
BBX 25 20 1 0
BITMAP
01FFC000
07FFF800
1FFFFC00
3FFFFE00
3E001F00
78000F00
78000F00
F0000780
F0000780
F0000780
F0000780
F0000780
F0000780
78000F00
78000F00
3E001E00
3FFFFE00
1FFFFC00
07FFF000
01FFC000
ENDCHAR
STARTCHAR p
ENCODING 112
SWIDTH 867 0
DWIDTH 24 0
BBX 22 20 2 0
BITMAP
FFFF80
FFFFE0
FFFFF0
FFFFF8
E00078
E00038
E00038
E0003C
E00038
E00078
E000F8
E3FFF0
E3FFF0
E3FFC0
E3FE00
E00000
E00000
E00000
E00000
E00000
ENDCHAR
STARTCHAR q
ENCODING 113
SWIDTH 968 0
DWIDTH 27 0
BBX 26 20 1 0
BITMAP
01FFC000
07FFF800
1FFFFC00
3FFFFE00
3E001F00
78000F00
78000F00
F0000780
F0000780
F0000780
F0000780
F0100780
F00F8780
7807CF00
7803EF00
3E00FE00
3FFFFE00
1FFFFE00
07FFFF00
01FFC7C0
ENDCHAR
STARTCHAR r
ENCODING 114
SWIDTH 921 0
DWIDTH 26 0
BBX 24 20 2 0
BITMAP
FFFF80
FFFFE0
FFFFF0
FFFFF8
E00078
E0003C
E0003C
E0003C
E0003C
E0003C
E00078
E3FFF8
E3FFF0
E3FFE0
E3FFC0
E003E0
E001F0
E000F8
E0007C
E0003F
ENDCHAR
STARTCHAR s
ENCODING 115
SWIDTH 880 0
DWIDTH 25 0
BBX 22 20 1 0
BITMAP
0FFFF8
3FFFF8
7FFFF8
7FFFF8
780000
F00000
F00000
780000
7FFFE0
3FFFF8
1FFFFC
03FFFC
00001C
00001C
00001C
00003C
7FFFFC
7FFFF8
7FFFF8
7FFFE0
ENDCHAR
STARTCHAR t
ENCODING 116
SWIDTH 720 0
DWIDTH 20 0
BBX 19 20 1 0
BITMAP
FFFFE0
FFFFE0
FFFFE0
FFFFE0
01E000
01E000
01E000
01E000
01E000
01E000
01E000
01E000
01E000
01E000
01E000
01E000
01E000
01E000
01E000
01E000
ENDCHAR
STARTCHAR u
ENCODING 117
SWIDTH 889 0
DWIDTH 25 0
BBX 22 20 1 0
BITMAP
F0001C
F0001C
F0001C
F0001C
F0001C
F0001C
F0001C
F0001C
F0001C
F0001C
F0001C
F0001C
70001C
78001C
78003C
7C007C
3FFFF8
1FFFF0
0FFFE0
03FF00
ENDCHAR
STARTCHAR v
ENCODING 118
SWIDTH 989 0
DWIDTH 28 0
BBX 27 20 0 0
BITMAP
F80001E0
7C0003C0
3C0003C0
1E000780
1E000F00
0F000F00
0F801E00
07801E00
03C03C00
03C07800
01E07800
00F0F000
00F0F000
0079E000
007FC000
003FC000
001F8000
001F0000
000F0000
00060000
ENDCHAR
STARTCHAR w
ENCODING 119
SWIDTH 1268 0
DWIDTH 36 0
BBX 35 20 0 0
BITMAP
F81E0001E0
781F0003C0
3C0F0003C0
3E07800780
1E07800780
1F03C00F00
0F03C00E00
0781E01E00
0781E03C00
03C0F03C00
03C0F07800
01E1F87800
01E3F8F000
00F3FCF000
00FFBDE000
007F1FC000
003F0FC000
003E0F8000
001E078000
001C070000
ENDCHAR
STARTCHAR x
ENCODING 120
SWIDTH 1000 0
DWIDTH 28 0
BBX 26 20 1 0
BITMAP
FC000F80
3E001F00
1F003E00
0F807C00
07C0F800
03E1F000
01F3E000
00FFC000
007F8000
003E0000
003F0000
007F8000
00F7C000
01E3E000
07C1F000
0F80F800
1F007C00
3E001F00
7C000F80
F80007C0
ENDCHAR
STARTCHAR y
ENCODING 121
SWIDTH 926 0
DWIDTH 26 0
BBX 26 20 0 0
BITMAP
FC0007C0
3C000F00
1E001E00
1F003E00
0F807C00
07C0F800
03E0F000
01E1E000
00F3C000
007F8000
007F0000
003F0000
001E0000
001E0000
001E0000
001E0000
001E0000
001E0000
001E0000
001E0000
ENDCHAR
STARTCHAR z
ENCODING 122
SWIDTH 802 0
DWIDTH 22 0
BBX 20 20 1 0
BITMAP
FFFFF0
FFFFF0
FFFFF0
FFFFE0
0007C0
000F80
001F00
003E00
007C00
00F800
01F000
03E000
07C000
0F8000
1F0000
3E0000
7FFFF0
FFFFF0
FFFFF0
7FFFF0
ENDCHAR
STARTCHAR braceleft
ENCODING 123
SWIDTH 337 0
DWIDTH 9 0
BBX 6 25 2 -2
BITMAP
3C
7C
70
70
60
60
60
60
60
60
60
E0
E0
60
60
60
60
60
60
60
60
60
70
3C
3C
ENDCHAR
STARTCHAR bar
ENCODING 124
SWIDTH 297 0
DWIDTH 8 0
BBX 2 25 3 -2
BITMAP
C0
C0
C0
C0
C0
C0
C0
C0
C0
C0
C0
C0
C0
C0
C0
C0
C0
C0
C0
C0
C0
C0
C0
C0
C0
ENDCHAR
STARTCHAR braceright
ENCODING 125
SWIDTH 337 0
DWIDTH 9 0
BBX 6 25 2 -2
BITMAP
E0
F0
70
30
30
30
30
30
30
30
30
3C
3C
30
30
30
30
30
30
30
30
30
70
F0
E0
ENDCHAR
STARTCHAR asciitilde
ENCODING 126
SWIDTH 691 0
DWIDTH 19 0
BBX 16 4 2 8
BITMAP
7E01
FF87
C3FF
807C
ENDCHAR
STARTCHAR nonbreakingspace
ENCODING 160
SWIDTH 294 0
DWIDTH 8 0
BBX 1 1 0 0
BITMAP
00
ENDCHAR
STARTCHAR exclamdown
ENCODING 161
SWIDTH 298 0
DWIDTH 8 0
BBX 4 20 2 0
BITMAP
70
F0
F0
20
00
00
70
70
70
70
70
70
70
70
70
70
70
70
70
70
ENDCHAR
STARTCHAR cent
ENCODING 162
SWIDTH 692 0
DWIDTH 19 0
BBX 17 20 1 0
BITMAP
003000
003000
07FF80
1FFF80
3FFF80
7C3000
703000
F03000
E03000
E03000
E03000
E03000
703000
703000
7C3000
3FFF80
1FFF80
07FF80
003000
003000
ENDCHAR
STARTCHAR sterling
ENCODING 163
SWIDTH 709 0
DWIDTH 20 0
BBX 18 20 1 0
BITMAP
03FE00
0FFE00
1FFE00
1FFE00
3C0000
3C0000
3C0000
3C0000
7FE000
7FE000
7FE000
3C0000
3C0000
3C0000
3C0000
3C0000
FFFFC0
FFFFC0
FFFFC0
FFFFC0
ENDCHAR
STARTCHAR yen
ENCODING 165
SWIDTH 787 0
DWIDTH 22 0
BBX 20 20 1 0
BITMAP
F000F0
7801E0
7801E0
3C03C0
1E0780
1E0780
0F0F00
079E00
079E00
03FC00
01F800
1FFFC0
1FFFC0
00F000
00F000
00F000
1FFFC0
1FFFC0
00F000
00F000
ENDCHAR
STARTCHAR brokenbar
ENCODING 166
SWIDTH 297 0
DWIDTH 8 0
BBX 2 25 3 -2
BITMAP
C0
C0
C0
C0
C0
C0
C0
C0
C0
C0
C0
00
00
00
C0
C0
C0
C0
C0
C0
C0
C0
C0
C0
C0
ENDCHAR
STARTCHAR section
ENCODING 167
SWIDTH 773 0
DWIDTH 22 0
BBX 19 26 1 -6
BITMAP
1FFF80
3FFF80
7FFF80
7FFF80
F00000
F00000
F00000
700000
7FFE00
3FFF80
3FFFC0
3803C0
7001C0
7001C0
7803C0
3FFF80
3FFF80
0FFFC0
0001E0
0000E0
0000E0
0001E0
1FFFE0
1FFFC0
1FFF80
1FFF00
ENDCHAR
STARTCHAR dieresis
ENCODING 168
SWIDTH 393 0
DWIDTH 11 0
BBX 9 2 1 22
BITMAP
E380
6300
ENDCHAR
STARTCHAR copyright
ENCODING 169
SWIDTH 829 0
DWIDTH 23 0
BBX 21 20 1 0
BITMAP
01FC00
070300
0800C0
100060
200020
40FC10
418010
C30008
860008
860008
860008
820008
C30008
40FC10
400010
200020
100060
080080
070300
01FC00
ENDCHAR
STARTCHAR ordfeminine
ENCODING 170
SWIDTH 604 0
DWIDTH 17 0
BBX 15 12 1 8
BITMAP
0100
0380
0380
06C0
0EC0
0C60
1870
1BF0
33F8
3418
600C
E00E
ENDCHAR
STARTCHAR guillemotleft
ENCODING 171
SWIDTH 629 0
DWIDTH 18 0
BBX 15 10 1 5
BITMAP
0102
070E
1C18
3070
E1C0
60E0
3830
0E1C
0306
0102
ENDCHAR
STARTCHAR registered
ENCODING 174
SWIDTH 585 0
DWIDTH 16 0
BBX 13 13 2 7
BITMAP
0F80
30C0
4020
DF90
9090
9098
9788
9198
90D0
C010
4020
30C0
0F80
ENDCHAR
STARTCHAR macron
ENCODING 175
SWIDTH 362 0
DWIDTH 10 0
BBX 8 2 1 22
BITMAP
FF
FF
ENDCHAR
STARTCHAR degree
ENCODING 176
SWIDTH 361 0
DWIDTH 10 0
BBX 8 8 1 12
BITMAP
3C
7E
C3
C3
C3
C3
7E
3C
ENDCHAR
STARTCHAR plusminus
ENCODING 177
SWIDTH 690 0
DWIDTH 19 0
BBX 16 20 2 -2
BITMAP
0380
0380
0380
0380
0380
0380
0380
FFFF
FFFF
0380
0380
0380
0380
0380
0380
0380
0000
0000
FFFF
FFFF
ENDCHAR
STARTCHAR twosuperior
ENCODING 178
SWIDTH 442 0
DWIDTH 12 0
BBX 10 10 1 11
BITMAP
FF80
FFC0
00C0
00C0
7F80
4000
C000
C000
FFC0
FFC0
ENDCHAR
STARTCHAR threesuperior
ENCODING 179
SWIDTH 443 0
DWIDTH 12 0
BBX 10 10 1 11
BITMAP
FF80
FFC0
00C0
00C0
3F80
00C0
00C0
00C0
FFC0
FF80
ENDCHAR
STARTCHAR acute
ENCODING 180
SWIDTH 362 0
DWIDTH 10 0
BBX 8 4 1 21
BITMAP
03
1F
FC
C0
ENDCHAR
STARTCHAR paragraph
ENCODING 182
SWIDTH 629 0
DWIDTH 18 0
BBX 15 23 1 -3
BITMAP
1FFE
7FFE
7F86
FF86
FF86
FF86
7F86
7F86
3F86
0186
0186
0186
0186
0186
0186
0186
0186
0186
0186
0186
0186
0186
0186
ENDCHAR
STARTCHAR periodcentered
ENCODING 183
SWIDTH 262 0
DWIDTH 7 0
BBX 4 4 2 8
BITMAP
40
E0
F0
E0
ENDCHAR
STARTCHAR cedilla
ENCODING 184
SWIDTH 219 0
DWIDTH 6 0
BBX 4 4 1 -5
BITMAP
F0
60
60
20
ENDCHAR
STARTCHAR onesuperior
ENCODING 185
SWIDTH 222 0
DWIDTH 6 0
BBX 4 10 1 11
BITMAP
E0
F0
30
30
30
30
30
30
30
30
ENDCHAR
STARTCHAR ordmasculine
ENCODING 186
SWIDTH 592 0
DWIDTH 17 0
BBX 14 11 1 8
BITMAP
1FE0
3FF8
7018
600C
600C
C00C
600C
600C
7018
3FF0
0FE0
ENDCHAR
STARTCHAR guillemotright
ENCODING 187
SWIDTH 629 0
DWIDTH 18 0
BBX 15 10 1 5
BITMAP
C180
E0E0
3870
0E1C
0306
070E
1C18
3070
E1C0
8100
ENDCHAR
STARTCHAR onequarter
ENCODING 188
SWIDTH 972 0
DWIDTH 27 0
BBX 25 23 1 -2
BITMAP
38003800
3C007000
06006000
0600C000
06018000
06038000
06070000
06060000
060C0000
06180000
00380000
00730300
00630300
00C30300
01830300
03830300
0701FF80
0601FF80
0C000300
18000300
38000300
70000000
E0000000
ENDCHAR
STARTCHAR onehalf
ENCODING 189
SWIDTH 948 0
DWIDTH 27 0
BBX 24 23 1 -2
BITMAP
380038
3C0070
060060
0600C0
060180
060380
060700
060600
060C00
061800
003800
0071FE
0061FF
00C003
018003
0380FE
070180
060300
0C0300
1803FF
3803FF
700000
E00000
ENDCHAR
STARTCHAR threequarters
ENCODING 190
SWIDTH 1029 0
DWIDTH 29 0
BBX 27 23 1 -2
BITMAP
FF800E00
FFC01800
00C03800
00C07000
1F806000
00C0C000
00418000
00C38000
FFC70000
FF860000
000C0000
0018C180
0038C180
0070C180
0060C180
00C0C180
0180FFE0
03807FE0
07000180
06000180
0C000180
18000000
38000000
ENDCHAR
STARTCHAR questiondown
ENCODING 191
SWIDTH 776 0
DWIDTH 22 0
BBX 19 20 1 0
BITMAP
000380
0003C0
0003C0
000100
000000
000000
0003C0
0003C0
03FF80
3FFF80
7FFF80
FFFE00
F00000
F00000
E00000
F00000
FFFFE0
7FFFE0
3FFFE0
1FFFE0
ENDCHAR
STARTCHAR Agrave
ENCODING 192
SWIDTH 989 0
DWIDTH 28 0
BBX 27 25 0 0
BITMAP
00600000
007C0000
001F8000
00018000
00000000
00060000
000F0000
001F0000
001F8000
003FC000
007BC000
0079E000
00F1F000
00F0F000
01E07800
03C07800
03C03C00
078FFE00
0F1FFE00
0F3FFF00
1E000F00
1E000780
3C0007C0
780003C0
F80001E0
ENDCHAR
STARTCHAR Aacute
ENCODING 193
SWIDTH 989 0
DWIDTH 28 0
BBX 27 25 0 0
BITMAP
00004000
0007C000
001F8000
00100000
00000000
00060000
000F0000
001F0000
001F8000
003FC000
007BC000
0079E000
00F1F000
00F0F000
01E07800
03C07800
03C03C00
078FFE00
0F1FFE00
0F3FFF00
1E000F00
1E000780
3C0007C0
780003C0
F80001E0
ENDCHAR
STARTCHAR Acircumflex
ENCODING 194
SWIDTH 989 0
DWIDTH 28 0
BBX 27 25 0 0
BITMAP
000E0000
000B0000
00198000
0030C000
00000000
00060000
000F0000
001F0000
001F8000
003FC000
007BC000
0079E000
00F1F000
00F0F000
01E07800
03C07800
03C03C00
078FFE00
0F1FFE00
0F3FFF00
1E000F00
1E000780
3C0007C0
780003C0
F80001E0
ENDCHAR
STARTCHAR Atilde
ENCODING 195
SWIDTH 989 0
DWIDTH 28 0
BBX 27 24 0 0
BITMAP
001C4000
00278000
00000000
00000000
00060000
000F0000
001F0000
001F8000
003FC000
007BC000
0079E000
00F1F000
00F0F000
01E07800
03C07800
03C03C00
078FFE00
0F1FFE00
0F3FFF00
1E000F00
1E000780
3C0007C0
780003C0
F80001E0
ENDCHAR
STARTCHAR Adieresis
ENCODING 196
SWIDTH 989 0
DWIDTH 28 0
BBX 27 24 0 0
BITMAP
0039C000
0031C000
00000000
00000000
00060000
000F0000
001F0000
001F8000
003FC000
007BC000
0079E000
00F1F000
00F0F000
01E07800
03C07800
03C03C00
078FFE00
0F1FFE00
0F3FFF00
1E000F00
1E000780
3C0007C0
780003C0
F80001E0
ENDCHAR
STARTCHAR Aring
ENCODING 197
SWIDTH 989 0
DWIDTH 28 0
BBX 27 27 0 0
BITMAP
001F0000
00108000
00208000
00208000
00108000
001F0000
00000000
00060000
000F0000
001F0000
001F8000
003FC000
007BC000
0079E000
00F1F000
00F0F000
01E07800
03C07800
03C03C00
078FFE00
0F1FFE00
0F3FFF00
1E000F00
1E000780
3C0007C0
780003C0
F80001E0
ENDCHAR
STARTCHAR AE
ENCODING 198
SWIDTH 1345 0
DWIDTH 38 0
BBX 36 20 0 0
BITMAP
000FFFFFF0
001FFFFFF0
001FFFFFF0
003FFFFFF0
00381E0000
00781E0000
00F01E0000
00F01E0000
01E01E7FF0
01E01E7FF0
03C01E7FF0
07801E7FF0
078FFE0000
0F1FFE0000
0F1FFE0000
1E3FFE0000
3C001FFFF0
3C001FFFF0
78001FFFF0
F8001FFFF0
ENDCHAR
STARTCHAR Ccedilla
ENCODING 199
SWIDTH 829 0
DWIDTH 23 0
BBX 21 25 1 -5
BITMAP
01FFF8
07FFF8
1FFFF8
3FFFF8
3E0000
780000
780000
F00000
F00000
F00000
F00000
F00000
F00000
780000
780000
3E0000
3FFFF8
1FFFF8
07FFF8
01FFF8
000000
007800
003000
003000
001000
ENDCHAR
STARTCHAR Egrave
ENCODING 200
SWIDTH 759 0
DWIDTH 21 0
BBX 18 25 2 0
BITMAP
0C0000
0F8000
07E000
002000
000000
FFFFC0
FFFFC0
FFFFC0
FFFFC0
E00000
E00000
E00000
E00000
E3FF80
E3FF80
E3FF80
E3FF80
E00000
E00000
E00000
E00000
FFFFC0
FFFFC0
FFFFC0
FFFFC0
ENDCHAR
STARTCHAR Eacute
ENCODING 201
SWIDTH 759 0
DWIDTH 21 0
BBX 18 25 2 0
BITMAP
000800
00F800
03F000
020000
000000
FFFFC0
FFFFC0
FFFFC0
FFFFC0
E00000
E00000
E00000
E00000
E3FF80
E3FF80
E3FF80
E3FF80
E00000
E00000
E00000
E00000
FFFFC0
FFFFC0
FFFFC0
FFFFC0
ENDCHAR
STARTCHAR Ecircumflex
ENCODING 202
SWIDTH 759 0
DWIDTH 21 0
BBX 18 25 2 0
BITMAP
01C000
036000
033000
063000
000000
FFFFC0
FFFFC0
FFFFC0
FFFFC0
E00000
E00000
E00000
E00000
E3FF80
E3FF80
E3FF80
E3FF80
E00000
E00000
E00000
E00000
FFFFC0
FFFFC0
FFFFC0
FFFFC0
ENDCHAR
STARTCHAR Edieresis
ENCODING 203
SWIDTH 759 0
DWIDTH 21 0
BBX 18 24 2 0
BITMAP
063800
063000
000000
000000
FFFFC0
FFFFC0
FFFFC0
FFFFC0
E00000
E00000
E00000
E00000
E3FF80
E3FF80
E3FF80
E3FF80
E00000
E00000
E00000
E00000
FFFFC0
FFFFC0
FFFFC0
FFFFC0
ENDCHAR
STARTCHAR Igrave
ENCODING 204
SWIDTH 267 0
DWIDTH 7 0
BBX 8 25 -1 0
BITMAP
C0
F8
7F
03
00
1E
1E
1E
1E
1E
1E
1E
1E
1E
1E
1E
1E
1E
1E
1E
1E
1E
1E
1E
1E
ENDCHAR
STARTCHAR Iacute
ENCODING 205
SWIDTH 267 0
DWIDTH 7 0
BBX 7 25 1 0
BITMAP
02
3E
FC
80
00
78
78
78
78
78
78
78
78
78
78
78
78
78
78
78
78
78
78
78
78
ENDCHAR
STARTCHAR Icircumflex
ENCODING 206
SWIDTH 267 0
DWIDTH 7 0
BBX 8 25 0 0
BITMAP
38
6C
66
C3
00
3C
3C
3C
3C
3C
3C
3C
3C
3C
3C
3C
3C
3C
3C
3C
3C
3C
3C
3C
3C
ENDCHAR
STARTCHAR Idieresis
ENCODING 207
SWIDTH 267 0
DWIDTH 7 0
BBX 8 24 0 0
BITMAP
E7
C7
00
00
3C
3C
3C
3C
3C
3C
3C
3C
3C
3C
3C
3C
3C
3C
3C
3C
3C
3C
3C
3C
ENDCHAR
STARTCHAR Eth
ENCODING 208
SWIDTH 877 0
DWIDTH 25 0
BBX 23 20 0 0
BITMAP
3FFF80
3FFFE0
3FFFF0
3FFFF8
38007C
38003E
38001E
38001E
FFF80E
FFF80E
FFF80E
FFF80E
38001E
38001E
38003C
38007C
3FFFF8
3FFFF0
3FFFE0
3FFF80
ENDCHAR
STARTCHAR Ntilde
ENCODING 209
SWIDTH 873 0
DWIDTH 24 0
BBX 21 24 2 0
BITMAP
01C400
023C00
000000
000000
E00078
F00078
F80078
FC0078
FE0078
FF0078
EF8078
E7C078
E3E078
E1F078
E0F878
E07C78
E03E78
E01F78
E00FF8
E007F8
E003F8
E000F8
E00078
E00030
ENDCHAR
STARTCHAR Ograve
ENCODING 210
SWIDTH 968 0
DWIDTH 27 0
BBX 25 25 1 0
BITMAP
00C00000
00F80000
007E0000
00020000
00000000
01FFC000
07FFF800
1FFFFC00
3FFFFE00
3E001F00
78000F00
78000F00
F0000780
F0000780
F0000780
F0000780
F0000780
F0000780
78000F00
78000F00
3E001E00
3FFFFE00
1FFFFC00
07FFF000
01FFC000
ENDCHAR
STARTCHAR Oacute
ENCODING 211
SWIDTH 968 0
DWIDTH 27 0
BBX 25 25 1 0
BITMAP
00008000
000F8000
003F0000
00200000
00000000
01FFC000
07FFF800
1FFFFC00
3FFFFE00
3E001F00
78000F00
78000F00
F0000780
F0000780
F0000780
F0000780
F0000780
F0000780
78000F00
78000F00
3E001E00
3FFFFE00
1FFFFC00
07FFF000
01FFC000
ENDCHAR
STARTCHAR Ocircumflex
ENCODING 212
SWIDTH 968 0
DWIDTH 27 0
BBX 25 25 1 0
BITMAP
001C0000
00360000
00230000
00630000
00000000
01FFC000
07FFF800
1FFFFC00
3FFFFE00
3E001F00
78000F00
78000F00
F0000780
F0000780
F0000780
F0000780
F0000780
F0000780
78000F00
78000F00
3E001E00
3FFFFE00
1FFFFC00
07FFF000
01FFC000
ENDCHAR
STARTCHAR Otilde
ENCODING 213
SWIDTH 968 0
DWIDTH 27 0
BBX 25 24 1 0
BITMAP
00790000
004F0000
00000000
00000000
01FFC000
07FFF800
1FFFFC00
3FFFFE00
3E001F00
78000F00
78000F00
F0000780
F0000780
F0000780
F0000780
F0000780
F0000780
78000F00
78000F00
3E001E00
3FFFFE00
1FFFFC00
07FFF000
01FFC000
ENDCHAR
STARTCHAR Odieresis
ENCODING 214
SWIDTH 968 0
DWIDTH 27 0
BBX 25 24 1 0
BITMAP
00638000
00630000
00000000
00000000
01FFC000
07FFF800
1FFFFC00
3FFFFE00
3E001F00
78000F00
78000F00
F0000780
F0000780
F0000780
F0000780
F0000780
F0000780
78000F00
78000F00
3E001E00
3FFFFE00
1FFFFC00
07FFF000
01FFC000
ENDCHAR
STARTCHAR multiply
ENCODING 215
SWIDTH 690 0
DWIDTH 19 0
BBX 13 13 3 4
BITMAP
4000
6030
F078
38F0
1DE0
0FC0
0780
0F80
1FC0
3CE0
7870
F038
6010
ENDCHAR
STARTCHAR Oslash
ENCODING 216
SWIDTH 968 0
DWIDTH 27 0
BBX 25 22 1 -1
BITMAP
00000600
01FFCC00
07FFF800
1FFFFC00
3FFFFE00
3E007F00
7800CF00
78018F00
F0030780
F0060780
F00C0780
F0180780
F0100780
F0300780
78600F00
78C00F00
3F801E00
3FFFFE00
1FFFFC00
0FFFF000
09FFC000
18000000
ENDCHAR
STARTCHAR Ugrave
ENCODING 217
SWIDTH 889 0
DWIDTH 25 0
BBX 22 25 1 0
BITMAP
018000
01F000
00FC00
000400
000000
F0001C
F0001C
F0001C
F0001C
F0001C
F0001C
F0001C
F0001C
F0001C
F0001C
F0001C
F0001C
70001C
78001C
78003C
7C007C
3FFFF8
1FFFF0
0FFFE0
03FF00
ENDCHAR
STARTCHAR Uacute
ENCODING 218
SWIDTH 889 0
DWIDTH 25 0
BBX 22 25 1 0
BITMAP
000300
001F00
007E00
004000
000000
F0001C
F0001C
F0001C
F0001C
F0001C
F0001C
F0001C
F0001C
F0001C
F0001C
F0001C
F0001C
70001C
78001C
78003C
7C007C
3FFFF8
1FFFF0
0FFFE0
03FF00
ENDCHAR
STARTCHAR Ucircumflex
ENCODING 219
SWIDTH 889 0
DWIDTH 25 0
BBX 22 25 1 0
BITMAP
003800
006C00
00C400
00C600
000000
F0001C
F0001C
F0001C
F0001C
F0001C
F0001C
F0001C
F0001C
F0001C
F0001C
F0001C
F0001C
70001C
78001C
78003C
7C007C
3FFFF8
1FFFF0
0FFFE0
03FF00
ENDCHAR
STARTCHAR Udieresis
ENCODING 220
SWIDTH 889 0
DWIDTH 25 0
BBX 22 24 1 0
BITMAP
01C600
00C600
000000
000000
F0001C
F0001C
F0001C
F0001C
F0001C
F0001C
F0001C
F0001C
F0001C
F0001C
F0001C
F0001C
70001C
78001C
78003C
7C007C
3FFFF8
1FFFF0
0FFFE0
03FF00
ENDCHAR
STARTCHAR Yacute
ENCODING 221
SWIDTH 926 0
DWIDTH 26 0
BBX 26 25 0 0
BITMAP
0000C000
0007C000
003F0000
00300000
00000000
FC0007C0
3C000F00
1E001E00
1F003E00
0F807C00
07C0F800
03E0F000
01E1E000
00F3C000
007F8000
007F0000
003F0000
001E0000
001E0000
001E0000
001E0000
001E0000
001E0000
001E0000
001E0000
ENDCHAR
STARTCHAR Thorn
ENCODING 222
SWIDTH 843 0
DWIDTH 24 0
BBX 21 20 2 0
BITMAP
E00000
E00000
E00000
FFFF00
FFFFC0
FFFFE0
FFFFF0
E000F0
E00078
E00078
E00078
E00078
E00070
E001F0
E3FFF0
E3FFE0
E3FF80
E3FC00
E00000
E00000
ENDCHAR
STARTCHAR germandbls
ENCODING 223
SWIDTH 1760 0
DWIDTH 49 0
BBX 47 20 1 0
BITMAP
0FFFF807FFFC
3FFFF81FFFFC
7FFFF83FFFFC
7FFFF87FFFFC
780000780000
F00000780000
F00000780000
7800007C0000
7FFFE03FFFF0
3FFFF83FFFF8
1FFFFC0FFFFC
03FFFC01FFFE
00001C00001E
00001C00000E
00001C00000E
00003C00001E
7FFFFC7FFFFE
7FFFF87FFFFC
7FFFF87FFFF8
7FFFE07FFFF0
ENDCHAR
STARTCHAR agrave
ENCODING 224
SWIDTH 989 0
DWIDTH 28 0
BBX 27 25 0 0
BITMAP
00600000
007C0000
001F8000
00018000
00000000
00060000
000F0000
001F0000
001F8000
003FC000
007BC000
0079E000
00F1F000
00F0F000
01E07800
03C07800
03C03C00
078FFE00
0F1FFE00
0F3FFF00
1E000F00
1E000780
3C0007C0
780003C0
F80001E0
ENDCHAR
STARTCHAR aacute
ENCODING 225
SWIDTH 989 0
DWIDTH 28 0
BBX 27 25 0 0
BITMAP
00004000
0007C000
001F8000
00100000
00000000
00060000
000F0000
001F0000
001F8000
003FC000
007BC000
0079E000
00F1F000
00F0F000
01E07800
03C07800
03C03C00
078FFE00
0F1FFE00
0F3FFF00
1E000F00
1E000780
3C0007C0
780003C0
F80001E0
ENDCHAR
STARTCHAR acircumflex
ENCODING 226
SWIDTH 989 0
DWIDTH 28 0
BBX 27 25 0 0
BITMAP
000E0000
000B0000
00198000
0030C000
00000000
00060000
000F0000
001F0000
001F8000
003FC000
007BC000
0079E000
00F1F000
00F0F000
01E07800
03C07800
03C03C00
078FFE00
0F1FFE00
0F3FFF00
1E000F00
1E000780
3C0007C0
780003C0
F80001E0
ENDCHAR
STARTCHAR atilde
ENCODING 227
SWIDTH 989 0
DWIDTH 28 0
BBX 27 24 0 0
BITMAP
001C4000
00278000
00000000
00000000
00060000
000F0000
001F0000
001F8000
003FC000
007BC000
0079E000
00F1F000
00F0F000
01E07800
03C07800
03C03C00
078FFE00
0F1FFE00
0F3FFF00
1E000F00
1E000780
3C0007C0
780003C0
F80001E0
ENDCHAR
STARTCHAR adieresis
ENCODING 228
SWIDTH 989 0
DWIDTH 28 0
BBX 27 24 0 0
BITMAP
0039C000
0031C000
00000000
00000000
00060000
000F0000
001F0000
001F8000
003FC000
007BC000
0079E000
00F1F000
00F0F000
01E07800
03C07800
03C03C00
078FFE00
0F1FFE00
0F3FFF00
1E000F00
1E000780
3C0007C0
780003C0
F80001E0
ENDCHAR
STARTCHAR aring
ENCODING 229
SWIDTH 989 0
DWIDTH 28 0
BBX 27 27 0 0
BITMAP
001F0000
00108000
00208000
00208000
00108000
001F0000
00000000
00060000
000F0000
001F0000
001F8000
003FC000
007BC000
0079E000
00F1F000
00F0F000
01E07800
03C07800
03C03C00
078FFE00
0F1FFE00
0F3FFF00
1E000F00
1E000780
3C0007C0
780003C0
F80001E0
ENDCHAR
STARTCHAR ae
ENCODING 230
SWIDTH 1345 0
DWIDTH 38 0
BBX 36 20 0 0
BITMAP
000FFFFFF0
001FFFFFF0
001FFFFFF0
003FFFFFF0
00381E0000
00781E0000
00F01E0000
00F01E0000
01E01E7FF0
01E01E7FF0
03C01E7FF0
07801E7FF0
078FFE0000
0F1FFE0000
0F1FFE0000
1E3FFE0000
3C001FFFF0
3C001FFFF0
78001FFFF0
F8001FFFF0
ENDCHAR
STARTCHAR ccedilla
ENCODING 231
SWIDTH 829 0
DWIDTH 23 0
BBX 21 25 1 -5
BITMAP
01FFF8
07FFF8
1FFFF8
3FFFF8
3E0000
780000
780000
F00000
F00000
F00000
F00000
F00000
F00000
780000
780000
3E0000
3FFFF8
1FFFF8
07FFF8
01FFF8
000000
007800
003000
003000
001000
ENDCHAR
STARTCHAR egrave
ENCODING 232
SWIDTH 759 0
DWIDTH 21 0
BBX 18 25 2 0
BITMAP
0C0000
0F8000
07E000
002000
000000
FFFFC0
FFFFC0
FFFFC0
FFFFC0
E00000
E00000
E00000
E00000
E3FF80
E3FF80
E3FF80
E3FF80
E00000
E00000
E00000
E00000
FFFFC0
FFFFC0
FFFFC0
FFFFC0
ENDCHAR
STARTCHAR eacute
ENCODING 233
SWIDTH 759 0
DWIDTH 21 0
BBX 18 25 2 0
BITMAP
000800
00F800
03F000
020000
000000
FFFFC0
FFFFC0
FFFFC0
FFFFC0
E00000
E00000
E00000
E00000
E3FF80
E3FF80
E3FF80
E3FF80
E00000
E00000
E00000
E00000
FFFFC0
FFFFC0
FFFFC0
FFFFC0
ENDCHAR
STARTCHAR ecircumflex
ENCODING 234
SWIDTH 759 0
DWIDTH 21 0
BBX 18 25 2 0
BITMAP
01C000
036000
033000
063000
000000
FFFFC0
FFFFC0
FFFFC0
FFFFC0
E00000
E00000
E00000
E00000
E3FF80
E3FF80
E3FF80
E3FF80
E00000
E00000
E00000
E00000
FFFFC0
FFFFC0
FFFFC0
FFFFC0
ENDCHAR
STARTCHAR edieresis
ENCODING 235
SWIDTH 759 0
DWIDTH 21 0
BBX 18 24 2 0
BITMAP
063800
063000
000000
000000
FFFFC0
FFFFC0
FFFFC0
FFFFC0
E00000
E00000
E00000
E00000
E3FF80
E3FF80
E3FF80
E3FF80
E00000
E00000
E00000
E00000
FFFFC0
FFFFC0
FFFFC0
FFFFC0
ENDCHAR
STARTCHAR igrave
ENCODING 236
SWIDTH 267 0
DWIDTH 7 0
BBX 8 25 -1 0
BITMAP
C0
F8
7F
03
00
1E
1E
1E
1E
1E
1E
1E
1E
1E
1E
1E
1E
1E
1E
1E
1E
1E
1E
1E
1E
ENDCHAR
STARTCHAR iacute
ENCODING 237
SWIDTH 267 0
DWIDTH 7 0
BBX 7 25 1 0
BITMAP
02
3E
FC
80
00
78
78
78
78
78
78
78
78
78
78
78
78
78
78
78
78
78
78
78
78
ENDCHAR
STARTCHAR icircumflex
ENCODING 238
SWIDTH 267 0
DWIDTH 7 0
BBX 8 25 0 0
BITMAP
38
6C
66
C3
00
3C
3C
3C
3C
3C
3C
3C
3C
3C
3C
3C
3C
3C
3C
3C
3C
3C
3C
3C
3C
ENDCHAR
STARTCHAR idieresis
ENCODING 239
SWIDTH 267 0
DWIDTH 7 0
BBX 8 24 0 0
BITMAP
E7
C7
00
00
3C
3C
3C
3C
3C
3C
3C
3C
3C
3C
3C
3C
3C
3C
3C
3C
3C
3C
3C
3C
ENDCHAR
STARTCHAR eth
ENCODING 240
SWIDTH 877 0
DWIDTH 25 0
BBX 23 20 0 0
BITMAP
3FFF80
3FFFE0
3FFFF0
3FFFF8
38007C
38003E
38001E
38001E
FFF80E
FFF80E
FFF80E
FFF80E
38001E
38001E
38003C
38007C
3FFFF8
3FFFF0
3FFFE0
3FFF80
ENDCHAR
STARTCHAR ntilde
ENCODING 241
SWIDTH 873 0
DWIDTH 24 0
BBX 21 24 2 0
BITMAP
01C400
023C00
000000
000000
E00078
F00078
F80078
FC0078
FE0078
FF0078
EF8078
E7C078
E3E078
E1F078
E0F878
E07C78
E03E78
E01F78
E00FF8
E007F8
E003F8
E000F8
E00078
E00030
ENDCHAR
STARTCHAR ograve
ENCODING 242
SWIDTH 968 0
DWIDTH 27 0
BBX 25 25 1 0
BITMAP
00C00000
00F80000
007E0000
00020000
00000000
01FFC000
07FFF800
1FFFFC00
3FFFFE00
3E001F00
78000F00
78000F00
F0000780
F0000780
F0000780
F0000780
F0000780
F0000780
78000F00
78000F00
3E001E00
3FFFFE00
1FFFFC00
07FFF000
01FFC000
ENDCHAR
STARTCHAR oacute
ENCODING 243
SWIDTH 968 0
DWIDTH 27 0
BBX 25 25 1 0
BITMAP
00008000
000F8000
003F0000
00200000
00000000
01FFC000
07FFF800
1FFFFC00
3FFFFE00
3E001F00
78000F00
78000F00
F0000780
F0000780
F0000780
F0000780
F0000780
F0000780
78000F00
78000F00
3E001E00
3FFFFE00
1FFFFC00
07FFF000
01FFC000
ENDCHAR
STARTCHAR ocircumflex
ENCODING 244
SWIDTH 968 0
DWIDTH 27 0
BBX 25 25 1 0
BITMAP
001C0000
00360000
00230000
00630000
00000000
01FFC000
07FFF800
1FFFFC00
3FFFFE00
3E001F00
78000F00
78000F00
F0000780
F0000780
F0000780
F0000780
F0000780
F0000780
78000F00
78000F00
3E001E00
3FFFFE00
1FFFFC00
07FFF000
01FFC000
ENDCHAR
STARTCHAR otilde
ENCODING 245
SWIDTH 968 0
DWIDTH 27 0
BBX 25 24 1 0
BITMAP
00790000
004F0000
00000000
00000000
01FFC000
07FFF800
1FFFFC00
3FFFFE00
3E001F00
78000F00
78000F00
F0000780
F0000780
F0000780
F0000780
F0000780
F0000780
78000F00
78000F00
3E001E00
3FFFFE00
1FFFFC00
07FFF000
01FFC000
ENDCHAR
STARTCHAR odieresis
ENCODING 246
SWIDTH 968 0
DWIDTH 27 0
BBX 25 24 1 0
BITMAP
00638000
00630000
00000000
00000000
01FFC000
07FFF800
1FFFFC00
3FFFFE00
3E001F00
78000F00
78000F00
F0000780
F0000780
F0000780
F0000780
F0000780
F0000780
78000F00
78000F00
3E001E00
3FFFFE00
1FFFFC00
07FFF000
01FFC000
ENDCHAR
STARTCHAR divide
ENCODING 247
SWIDTH 690 0
DWIDTH 19 0
BBX 16 19 2 1
BITMAP
0100
0380
03C0
0380
0000
0000
0000
0000
0000
FFFF
FFFF
0000
0000
0000
0000
0100
0380
03C0
0380
ENDCHAR
STARTCHAR oslash
ENCODING 248
SWIDTH 968 0
DWIDTH 27 0
BBX 25 22 1 -1
BITMAP
00000600
01FFCC00
07FFF800
1FFFFC00
3FFFFE00
3E007F00
7800CF00
78018F00
F0030780
F0060780
F00C0780
F0180780
F0100780
F0300780
78600F00
78C00F00
3F801E00
3FFFFE00
1FFFFC00
0FFFF000
09FFC000
18000000
ENDCHAR
STARTCHAR ugrave
ENCODING 249
SWIDTH 889 0
DWIDTH 25 0
BBX 22 25 1 0
BITMAP
018000
01F000
00FC00
000400
000000
F0001C
F0001C
F0001C
F0001C
F0001C
F0001C
F0001C
F0001C
F0001C
F0001C
F0001C
F0001C
70001C
78001C
78003C
7C007C
3FFFF8
1FFFF0
0FFFE0
03FF00
ENDCHAR
STARTCHAR uacute
ENCODING 250
SWIDTH 889 0
DWIDTH 25 0
BBX 22 25 1 0
BITMAP
000300
001F00
007E00
004000
000000
F0001C
F0001C
F0001C
F0001C
F0001C
F0001C
F0001C
F0001C
F0001C
F0001C
F0001C
F0001C
70001C
78001C
78003C
7C007C
3FFFF8
1FFFF0
0FFFE0
03FF00
ENDCHAR
STARTCHAR ucircumflex
ENCODING 251
SWIDTH 889 0
DWIDTH 25 0
BBX 22 25 1 0
BITMAP
003800
006C00
00C400
00C600
000000
F0001C
F0001C
F0001C
F0001C
F0001C
F0001C
F0001C
F0001C
F0001C
F0001C
F0001C
F0001C
70001C
78001C
78003C
7C007C
3FFFF8
1FFFF0
0FFFE0
03FF00
ENDCHAR
STARTCHAR udieresis
ENCODING 252
SWIDTH 889 0
DWIDTH 25 0
BBX 22 24 1 0
BITMAP
01C600
00C600
000000
000000
F0001C
F0001C
F0001C
F0001C
F0001C
F0001C
F0001C
F0001C
F0001C
F0001C
F0001C
F0001C
70001C
78001C
78003C
7C007C
3FFFF8
1FFFF0
0FFFE0
03FF00
ENDCHAR
STARTCHAR yacute
ENCODING 253
SWIDTH 926 0
DWIDTH 26 0
BBX 26 25 0 0
BITMAP
0000C000
0007C000
003F0000
00300000
00000000
FC0007C0
3C000F00
1E001E00
1F003E00
0F807C00
07C0F800
03E0F000
01E1E000
00F3C000
007F8000
007F0000
003F0000
001E0000
001E0000
001E0000
001E0000
001E0000
001E0000
001E0000
001E0000
ENDCHAR
STARTCHAR thorn
ENCODING 254
SWIDTH 843 0
DWIDTH 24 0
BBX 21 20 2 0
BITMAP
E00000
E00000
E00000
FFFF00
FFFFC0
FFFFE0
FFFFF0
E000F0
E00078
E00078
E00078
E00078
E00070
E001F0
E3FFF0
E3FFE0
E3FF80
E3FC00
E00000
E00000
ENDCHAR
STARTCHAR ydieresis
ENCODING 255
SWIDTH 926 0
DWIDTH 26 0
BBX 26 24 0 0
BITMAP
00738000
00738000
00000000
00000000
FC0007C0
3C000F00
1E001E00
1F003E00
0F807C00
07C0F800
03E0F000
01E1E000
00F3C000
007F8000
007F0000
003F0000
001E0000
001E0000
001E0000
001E0000
001E0000
001E0000
001E0000
001E0000
ENDCHAR
STARTCHAR Amacron
ENCODING 256
SWIDTH 989 0
DWIDTH 28 0
BBX 27 24 0 0
BITMAP
003F8000
003F8000
00000000
00000000
00060000
000F0000
001F0000
001F8000
003FC000
007BC000
0079E000
00F1F000
00F0F000
01E07800
03C07800
03C03C00
078FFE00
0F1FFE00
0F3FFF00
1E000F00
1E000780
3C0007C0
780003C0
F80001E0
ENDCHAR
STARTCHAR amacron
ENCODING 257
SWIDTH 989 0
DWIDTH 28 0
BBX 27 24 0 0
BITMAP
003F8000
003F8000
00000000
00000000
00060000
000F0000
001F0000
001F8000
003FC000
007BC000
0079E000
00F1F000
00F0F000
01E07800
03C07800
03C03C00
078FFE00
0F1FFE00
0F3FFF00
1E000F00
1E000780
3C0007C0
780003C0
F80001E0
ENDCHAR
STARTCHAR Abreve
ENCODING 258
SWIDTH 989 0
DWIDTH 28 0
BBX 27 25 0 0
BITMAP
0030C000
0030C000
00198000
001F0000
00000000
00060000
000F0000
001F0000
001F8000
003FC000
007BC000
0079E000
00F1F000
00F0F000
01E07800
03C07800
03C03C00
078FFE00
0F1FFE00
0F3FFF00
1E000F00
1E000780
3C0007C0
780003C0
F80001E0
ENDCHAR
STARTCHAR abreve
ENCODING 259
SWIDTH 989 0
DWIDTH 28 0
BBX 27 25 0 0
BITMAP
0030C000
0030C000
00198000
001F0000
00000000
00060000
000F0000
001F0000
001F8000
003FC000
007BC000
0079E000
00F1F000
00F0F000
01E07800
03C07800
03C03C00
078FFE00
0F1FFE00
0F3FFF00
1E000F00
1E000780
3C0007C0
780003C0
F80001E0
ENDCHAR
STARTCHAR Aogonek
ENCODING 260
SWIDTH 989 0
DWIDTH 28 0
BBX 27 25 0 -5
BITMAP
00060000
000F0000
001F0000
001F8000
003FC000
007BC000
0079E000
00F1F000
00F0F000
01E07800
03C07800
03C03C00
078FFE00
0F1FFE00
0F3FFF00
1E000F00
1E000780
3C0007C0
780003C0
F80001E0
00000040
00000180
00000300
000003E0
000001E0
ENDCHAR
STARTCHAR aogonek
ENCODING 261
SWIDTH 989 0
DWIDTH 28 0
BBX 27 25 0 -5
BITMAP
00060000
000F0000
001F0000
001F8000
003FC000
007BC000
0079E000
00F1F000
00F0F000
01E07800
03C07800
03C03C00
078FFE00
0F1FFE00
0F3FFF00
1E000F00
1E000780
3C0007C0
780003C0
F80001E0
00000040
00000180
00000300
000003E0
000001E0
ENDCHAR
STARTCHAR Cacute
ENCODING 262
SWIDTH 829 0
DWIDTH 23 0
BBX 21 25 1 0
BITMAP
000100
000F00
007E00
006000
000000
01FFF8
07FFF8
1FFFF8
3FFFF8
3E0000
780000
780000
F00000
F00000
F00000
F00000
F00000
F00000
780000
780000
3E0000
3FFFF8
1FFFF8
07FFF8
01FFF8
ENDCHAR
STARTCHAR cacute
ENCODING 263
SWIDTH 829 0
DWIDTH 23 0
BBX 21 25 1 0
BITMAP
000100
000F00
007E00
006000
000000
01FFF8
07FFF8
1FFFF8
3FFFF8
3E0000
780000
780000
F00000
F00000
F00000
F00000
F00000
F00000
780000
780000
3E0000
3FFFF8
1FFFF8
07FFF8
01FFF8
ENDCHAR
STARTCHAR Cdotaccent
ENCODING 266
SWIDTH 829 0
DWIDTH 23 0
BBX 21 24 1 0
BITMAP
001C00
001800
000000
000000
01FFF8
07FFF8
1FFFF8
3FFFF8
3E0000
780000
780000
F00000
F00000
F00000
F00000
F00000
F00000
780000
780000
3E0000
3FFFF8
1FFFF8
07FFF8
01FFF8
ENDCHAR
STARTCHAR cdotaccent
ENCODING 267
SWIDTH 829 0
DWIDTH 23 0
BBX 21 24 1 0
BITMAP
001C00
001800
000000
000000
01FFF8
07FFF8
1FFFF8
3FFFF8
3E0000
780000
780000
F00000
F00000
F00000
F00000
F00000
F00000
780000
780000
3E0000
3FFFF8
1FFFF8
07FFF8
01FFF8
ENDCHAR
STARTCHAR Ccaron
ENCODING 268
SWIDTH 829 0
DWIDTH 23 0
BBX 21 25 1 0
BITMAP
00C300
006600
003C00
003C00
000000
01FFF8
07FFF8
1FFFF8
3FFFF8
3E0000
780000
780000
F00000
F00000
F00000
F00000
F00000
F00000
780000
780000
3E0000
3FFFF8
1FFFF8
07FFF8
01FFF8
ENDCHAR
STARTCHAR ccaron
ENCODING 269
SWIDTH 829 0
DWIDTH 23 0
BBX 21 25 1 0
BITMAP
00C300
006600
003C00
003C00
000000
01FFF8
07FFF8
1FFFF8
3FFFF8
3E0000
780000
780000
F00000
F00000
F00000
F00000
F00000
F00000
780000
780000
3E0000
3FFFF8
1FFFF8
07FFF8
01FFF8
ENDCHAR
STARTCHAR Dcaron
ENCODING 270
SWIDTH 879 0
DWIDTH 25 0
BBX 21 25 2 0
BITMAP
061800
033000
01B000
00E000
000000
FFFE00
FFFF80
FFFFC0
FFFFE0
E001F0
E000F8
E00078
E00078
E00038
E00038
E00038
E00038
E00078
E00078
E000F0
E001F0
FFFFE0
FFFFC0
FFFF80
FFFE00
ENDCHAR
STARTCHAR dcaron
ENCODING 271
SWIDTH 879 0
DWIDTH 25 0
BBX 21 25 2 0
BITMAP
061800
033000
01B000
00E000
000000
FFFE00
FFFF80
FFFFC0
FFFFE0
E001F0
E000F8
E00078
E00078
E00038
E00038
E00038
E00038
E00078
E00078
E000F0
E001F0
FFFFE0
FFFFC0
FFFF80
FFFE00
ENDCHAR
STARTCHAR Dcroat
ENCODING 272
SWIDTH 877 0
DWIDTH 25 0
BBX 23 20 0 0
BITMAP
3FFF80
3FFFE0
3FFFF0
3FFFF8
38007C
38003E
38001E
38001E
FFF80E
FFF80E
FFF80E
FFF80E
38001E
38001E
38003C
38007C
3FFFF8
3FFFF0
3FFFE0
3FFF80
ENDCHAR
STARTCHAR dcroat
ENCODING 273
SWIDTH 877 0
DWIDTH 25 0
BBX 23 20 0 0
BITMAP
3FFF80
3FFFE0
3FFFF0
3FFFF8
38007C
38003E
38001E
38001E
FFF80E
FFF80E
FFF80E
FFF80E
38001E
38001E
38003C
38007C
3FFFF8
3FFFF0
3FFFE0
3FFF80
ENDCHAR
STARTCHAR Emacron
ENCODING 274
SWIDTH 759 0
DWIDTH 21 0
BBX 18 24 2 0
BITMAP
07F000
07F000
000000
000000
FFFFC0
FFFFC0
FFFFC0
FFFFC0
E00000
E00000
E00000
E00000
E3FF80
E3FF80
E3FF80
E3FF80
E00000
E00000
E00000
E00000
FFFFC0
FFFFC0
FFFFC0
FFFFC0
ENDCHAR
STARTCHAR emacron
ENCODING 275
SWIDTH 759 0
DWIDTH 21 0
BBX 18 24 2 0
BITMAP
07F000
07F000
000000
000000
FFFFC0
FFFFC0
FFFFC0
FFFFC0
E00000
E00000
E00000
E00000
E3FF80
E3FF80
E3FF80
E3FF80
E00000
E00000
E00000
E00000
FFFFC0
FFFFC0
FFFFC0
FFFFC0
ENDCHAR
STARTCHAR Ebreve
ENCODING 276
SWIDTH 759 0
DWIDTH 21 0
BBX 18 25 2 0
BITMAP
061000
063000
063000
03E000
000000
FFFFC0
FFFFC0
FFFFC0
FFFFC0
E00000
E00000
E00000
E00000
E3FF80
E3FF80
E3FF80
E3FF80
E00000
E00000
E00000
E00000
FFFFC0
FFFFC0
FFFFC0
FFFFC0
ENDCHAR
STARTCHAR ebreve
ENCODING 277
SWIDTH 759 0
DWIDTH 21 0
BBX 18 25 2 0
BITMAP
061000
063000
063000
03E000
000000
FFFFC0
FFFFC0
FFFFC0
FFFFC0
E00000
E00000
E00000
E00000
E3FF80
E3FF80
E3FF80
E3FF80
E00000
E00000
E00000
E00000
FFFFC0
FFFFC0
FFFFC0
FFFFC0
ENDCHAR
STARTCHAR Edotaccent
ENCODING 278
SWIDTH 759 0
DWIDTH 21 0
BBX 18 24 2 0
BITMAP
01C000
01C000
000000
000000
FFFFC0
FFFFC0
FFFFC0
FFFFC0
E00000
E00000
E00000
E00000
E3FF80
E3FF80
E3FF80
E3FF80
E00000
E00000
E00000
E00000
FFFFC0
FFFFC0
FFFFC0
FFFFC0
ENDCHAR
STARTCHAR edotaccent
ENCODING 279
SWIDTH 759 0
DWIDTH 21 0
BBX 18 24 2 0
BITMAP
01C000
01C000
000000
000000
FFFFC0
FFFFC0
FFFFC0
FFFFC0
E00000
E00000
E00000
E00000
E3FF80
E3FF80
E3FF80
E3FF80
E00000
E00000
E00000
E00000
FFFFC0
FFFFC0
FFFFC0
FFFFC0
ENDCHAR
STARTCHAR Eogonek
ENCODING 280
SWIDTH 759 0
DWIDTH 21 0
BBX 18 25 2 -5
BITMAP
FFFFC0
FFFFC0
FFFFC0
FFFFC0
E00000
E00000
E00000
E00000
E3FF80
E3FF80
E3FF80
E3FF80
E00000
E00000
E00000
E00000
FFFFC0
FFFFC0
FFFFC0
FFFFC0
000180
000300
000600
0007C0
0007C0
ENDCHAR
STARTCHAR eogonek
ENCODING 281
SWIDTH 759 0
DWIDTH 21 0
BBX 18 25 2 -5
BITMAP
FFFFC0
FFFFC0
FFFFC0
FFFFC0
E00000
E00000
E00000
E00000
E3FF80
E3FF80
E3FF80
E3FF80
E00000
E00000
E00000
E00000
FFFFC0
FFFFC0
FFFFC0
FFFFC0
000180
000300
000600
0007C0
0007C0
ENDCHAR
STARTCHAR Ecaron
ENCODING 282
SWIDTH 759 0
DWIDTH 21 0
BBX 18 25 2 0
BITMAP
063000
023000
036000
01C000
000000
FFFFC0
FFFFC0
FFFFC0
FFFFC0
E00000
E00000
E00000
E00000
E3FF80
E3FF80
E3FF80
E3FF80
E00000
E00000
E00000
E00000
FFFFC0
FFFFC0
FFFFC0
FFFFC0
ENDCHAR
STARTCHAR ecaron
ENCODING 283
SWIDTH 759 0
DWIDTH 21 0
BBX 18 25 2 0
BITMAP
063000
023000
036000
01C000
000000
FFFFC0
FFFFC0
FFFFC0
FFFFC0
E00000
E00000
E00000
E00000
E3FF80
E3FF80
E3FF80
E3FF80
E00000
E00000
E00000
E00000
FFFFC0
FFFFC0
FFFFC0
FFFFC0
ENDCHAR
STARTCHAR Gbreve
ENCODING 286
SWIDTH 888 0
DWIDTH 25 0
BBX 22 25 1 0
BITMAP
00C300
004300
006300
003E00
000000
01FFF8
07FFF8
1FFFF8
3FFFF8
3E0000
780000
780000
F00000
F03FFC
F03FFC
F03FFC
F03FFC
F0001C
78001C
78001C
3E001C
3FFFFC
1FFFFC
07FFFC
01FFFC
ENDCHAR
STARTCHAR gbreve
ENCODING 287
SWIDTH 888 0
DWIDTH 25 0
BBX 22 25 1 0
BITMAP
00C300
004300
006300
003E00
000000
01FFF8
07FFF8
1FFFF8
3FFFF8
3E0000
780000
780000
F00000
F03FFC
F03FFC
F03FFC
F03FFC
F0001C
78001C
78001C
3E001C
3FFFFC
1FFFFC
07FFFC
01FFFC
ENDCHAR
STARTCHAR Gdotaccent
ENCODING 288
SWIDTH 888 0
DWIDTH 25 0
BBX 22 24 1 0
BITMAP
001C00
001C00
000000
000000
01FFF8
07FFF8
1FFFF8
3FFFF8
3E0000
780000
780000
F00000
F03FFC
F03FFC
F03FFC
F03FFC
F0001C
78001C
78001C
3E001C
3FFFFC
1FFFFC
07FFFC
01FFFC
ENDCHAR
STARTCHAR gdotaccent
ENCODING 289
SWIDTH 888 0
DWIDTH 25 0
BBX 22 24 1 0
BITMAP
001C00
001C00
000000
000000
01FFF8
07FFF8
1FFFF8
3FFFF8
3E0000
780000
780000
F00000
F03FFC
F03FFC
F03FFC
F03FFC
F0001C
78001C
78001C
3E001C
3FFFFC
1FFFFC
07FFFC
01FFFC
ENDCHAR
STARTCHAR Gcommaaccent
ENCODING 290
SWIDTH 888 0
DWIDTH 25 0
BBX 22 25 1 -5
BITMAP
01FFF8
07FFF8
1FFFF8
3FFFF8
3E0000
780000
780000
F00000
F03FFC
F03FFC
F03FFC
F03FFC
F0001C
78001C
78001C
3E001C
3FFFFC
1FFFFC
07FFFC
01FFFC
000000
003C00
003800
001000
001000
ENDCHAR
STARTCHAR gcommaaccent
ENCODING 291
SWIDTH 888 0
DWIDTH 25 0
BBX 22 25 1 -5
BITMAP
01FFF8
07FFF8
1FFFF8
3FFFF8
3E0000
780000
780000
F00000
F03FFC
F03FFC
F03FFC
F03FFC
F0001C
78001C
78001C
3E001C
3FFFFC
1FFFFC
07FFFC
01FFFC
000000
003C00
003800
001000
001000
ENDCHAR
STARTCHAR Hbar
ENCODING 294
SWIDTH 838 0
DWIDTH 23 0
BBX 20 20 2 0
BITMAP
E000F0
E000F0
E000F0
E3FFF0
E3FFF0
E000F0
E000F0
E000F0
E3FFF0
E3FFF0
E3FFF0
E3FFF0
E000F0
E000F0
E000F0
E000F0
E000F0
E000F0
E000F0
E000F0
ENDCHAR
STARTCHAR hbar
ENCODING 295
SWIDTH 838 0
DWIDTH 23 0
BBX 20 20 2 0
BITMAP
E000F0
E000F0
E000F0
E3FFF0
E3FFF0
E000F0
E000F0
E000F0
E3FFF0
E3FFF0
E3FFF0
E3FFF0
E000F0
E000F0
E000F0
E000F0
E000F0
E000F0
E000F0
E000F0
ENDCHAR
STARTCHAR uni012A
ENCODING 298
SWIDTH 267 0
DWIDTH 7 0
BBX 7 24 0 0
BITMAP
FE
FE
00
00
3C
3C
3C
3C
3C
3C
3C
3C
3C
3C
3C
3C
3C
3C
3C
3C
3C
3C
3C
3C
ENDCHAR
STARTCHAR imacron
ENCODING 299
SWIDTH 267 0
DWIDTH 7 0
BBX 7 24 0 0
BITMAP
FE
FE
00
00
3C
3C
3C
3C
3C
3C
3C
3C
3C
3C
3C
3C
3C
3C
3C
3C
3C
3C
3C
3C
ENDCHAR
STARTCHAR Ibreve
ENCODING 300
SWIDTH 267 0
DWIDTH 7 0
BBX 8 25 0 0
BITMAP
C3
C3
C6
7C
00
3C
3C
3C
3C
3C
3C
3C
3C
3C
3C
3C
3C
3C
3C
3C
3C
3C
3C
3C
3C
ENDCHAR
STARTCHAR ibreve
ENCODING 301
SWIDTH 267 0
DWIDTH 7 0
BBX 8 25 0 0
BITMAP
C3
C3
C6
7C
00
3C
3C
3C
3C
3C
3C
3C
3C
3C
3C
3C
3C
3C
3C
3C
3C
3C
3C
3C
3C
ENDCHAR
STARTCHAR Iogonek
ENCODING 302
SWIDTH 267 0
DWIDTH 7 0
BBX 6 25 0 -5
BITMAP
3C
3C
3C
3C
3C
3C
3C
3C
3C
3C
3C
3C
3C
3C
3C
3C
3C
3C
3C
3C
18
60
C0
FC
7C
ENDCHAR
STARTCHAR iogonek
ENCODING 303
SWIDTH 267 0
DWIDTH 7 0
BBX 6 25 0 -5
BITMAP
3C
3C
3C
3C
3C
3C
3C
3C
3C
3C
3C
3C
3C
3C
3C
3C
3C
3C
3C
3C
18
60
C0
FC
7C
ENDCHAR
STARTCHAR Idotaccent
ENCODING 304
SWIDTH 267 0
DWIDTH 7 0
BBX 4 24 2 0
BITMAP
E0
60
00
00
F0
F0
F0
F0
F0
F0
F0
F0
F0
F0
F0
F0
F0
F0
F0
F0
F0
F0
F0
F0
ENDCHAR
STARTCHAR dotlessi
ENCODING 305
SWIDTH 267 0
DWIDTH 7 0
BBX 4 20 2 0
BITMAP
F0
F0
F0
F0
F0
F0
F0
F0
F0
F0
F0
F0
F0
F0
F0
F0
F0
F0
F0
F0
ENDCHAR
STARTCHAR IJ
ENCODING 306
SWIDTH 975 0
DWIDTH 27 0
BBX 24 20 2 0
BITMAP
F0000F
F0000F
F0000F
F0000F
F0000F
F0000F
F0000F
F0000F
F0000F
F0000F
F0000F
F0000F
F0000F
F0000F
F0001E
F0003E
F3FFFC
F3FFFC
F3FFF0
F3FFC0
ENDCHAR
STARTCHAR ij
ENCODING 307
SWIDTH 975 0
DWIDTH 27 0
BBX 24 20 2 0
BITMAP
F0000F
F0000F
F0000F
F0000F
F0000F
F0000F
F0000F
F0000F
F0000F
F0000F
F0000F
F0000F
F0000F
F0000F
F0001E
F0003E
F3FFFC
F3FFFC
F3FFF0
F3FFC0
ENDCHAR
STARTCHAR Kcommaaccent
ENCODING 310
SWIDTH 875 0
DWIDTH 25 0
BBX 22 25 2 -5
BITMAP
E001FC
E003F0
E007C0
E01F80
E03F00
E07C00
E1F800
E3E000
E7C000
EF8000
E78000
E3C000
E1F000
E0F800
E07E00
E01F00
E00F80
E007E0
E001F0
E000FC
000000
00F000
006000
006000
002000
ENDCHAR
STARTCHAR kcommaaccent
ENCODING 311
SWIDTH 875 0
DWIDTH 25 0
BBX 22 25 2 -5
BITMAP
E001FC
E003F0
E007C0
E01F80
E03F00
E07C00
E1F800
E3E000
E7C000
EF8000
E78000
E3C000
E1F000
E0F800
E07E00
E01F00
E00F80
E007E0
E001F0
E000FC
000000
00F000
006000
006000
002000
ENDCHAR
STARTCHAR Lacute
ENCODING 313
SWIDTH 707 0
DWIDTH 20 0
BBX 18 25 1 0
BITMAP
060000
3E0000
FC0000
800000
000000
700000
700000
700000
700000
700000
700000
700000
700000
700000
700000
700000
700000
700000
700000
700000
700000
7FFFC0
7FFFC0
7FFFC0
7FFFC0
ENDCHAR
STARTCHAR lacute
ENCODING 314
SWIDTH 707 0
DWIDTH 20 0
BBX 18 25 1 0
BITMAP
060000
3E0000
FC0000
800000
000000
700000
700000
700000
700000
700000
700000
700000
700000
700000
700000
700000
700000
700000
700000
700000
700000
7FFFC0
7FFFC0
7FFFC0
7FFFC0
ENDCHAR
STARTCHAR Lcommaaccent
ENCODING 315
SWIDTH 707 0
DWIDTH 20 0
BBX 17 25 2 -5
BITMAP
E00000
E00000
E00000
E00000
E00000
E00000
E00000
E00000
E00000
E00000
E00000
E00000
E00000
E00000
E00000
E00000
FFFF80
FFFF80
FFFF80
FFFF80
000000
01C000
01C000
008000
008000
ENDCHAR
STARTCHAR lcommaaccent
ENCODING 316
SWIDTH 707 0
DWIDTH 20 0
BBX 17 25 2 -5
BITMAP
E00000
E00000
E00000
E00000
E00000
E00000
E00000
E00000
E00000
E00000
E00000
E00000
E00000
E00000
E00000
E00000
FFFF80
FFFF80
FFFF80
FFFF80
000000
01C000
01C000
008000
008000
ENDCHAR
STARTCHAR Lcaron
ENCODING 317
SWIDTH 707 0
DWIDTH 20 0
BBX 17 20 2 0
BITMAP
E1C000
E1C000
E1C000
E1C000
E18000
E18000
E18000
E00000
E00000
E00000
E00000
E00000
E00000
E00000
E00000
E00000
FFFF80
FFFF80
FFFF80
FFFF80
ENDCHAR
STARTCHAR lcaron
ENCODING 318
SWIDTH 707 0
DWIDTH 20 0
BBX 17 20 2 0
BITMAP
E1C000
E1C000
E1C000
E1C000
E18000
E18000
E18000
E00000
E00000
E00000
E00000
E00000
E00000
E00000
E00000
E00000
FFFF80
FFFF80
FFFF80
FFFF80
ENDCHAR
STARTCHAR Ldot
ENCODING 319
SWIDTH 707 0
DWIDTH 20 0
BBX 17 20 2 0
BITMAP
E00000
E00000
E00000
E00000
E00000
E00000
E00000
E00000
E00000
E38000
E38000
E00000
E00000
E00000
E00000
E00000
FFFF80
FFFF80
FFFF80
FFFF80
ENDCHAR
STARTCHAR ldot
ENCODING 320
SWIDTH 707 0
DWIDTH 20 0
BBX 17 20 2 0
BITMAP
E00000
E00000
E00000
E00000
E00000
E00000
E00000
E00000
E00000
E38000
E38000
E00000
E00000
E00000
E00000
E00000
FFFF80
FFFF80
FFFF80
FFFF80
ENDCHAR
STARTCHAR Lslash
ENCODING 321
SWIDTH 707 0
DWIDTH 20 0
BBX 17 20 2 0
BITMAP
E00000
E00000
E00000
E00000
E00000
E00000
E06000
E1E000
E7E000
FF8000
FE0000
F80000
E00000
E00000
E00000
E00000
FFFF80
FFFF80
FFFF80
FFFF80
ENDCHAR
STARTCHAR lslash
ENCODING 322
SWIDTH 707 0
DWIDTH 20 0
BBX 17 20 2 0
BITMAP
E00000
E00000
E00000
E00000
E00000
E00000
E06000
E1E000
E7E000
FF8000
FE0000
F80000
E00000
E00000
E00000
E00000
FFFF80
FFFF80
FFFF80
FFFF80
ENDCHAR
STARTCHAR Nacute
ENCODING 323
SWIDTH 873 0
DWIDTH 24 0
BBX 21 25 2 0
BITMAP
000600
003E00
01F800
018000
000000
E00078
F00078
F80078
FC0078
FE0078
FF0078
EF8078
E7C078
E3E078
E1F078
E0F878
E07C78
E03E78
E01F78
E00FF8
E007F8
E003F8
E000F8
E00078
E00030
ENDCHAR
STARTCHAR nacute
ENCODING 324
SWIDTH 873 0
DWIDTH 24 0
BBX 21 25 2 0
BITMAP
000600
003E00
01F800
018000
000000
E00078
F00078
F80078
FC0078
FE0078
FF0078
EF8078
E7C078
E3E078
E1F078
E0F878
E07C78
E03E78
E01F78
E00FF8
E007F8
E003F8
E000F8
E00078
E00030
ENDCHAR
STARTCHAR Ncommaaccent
ENCODING 325
SWIDTH 873 0
DWIDTH 24 0
BBX 21 25 2 -5
BITMAP
E00078
F00078
F80078
FC0078
FE0078
FF0078
EF8078
E7C078
E3E078
E1F078
E0F878
E07C78
E03E78
E01F78
E00FF8
E007F8
E003F8
E000F8
E00078
E00030
000000
00F000
006000
006000
002000
ENDCHAR
STARTCHAR ncommaaccent
ENCODING 326
SWIDTH 873 0
DWIDTH 24 0
BBX 21 25 2 -5
BITMAP
E00078
F00078
F80078
FC0078
FE0078
FF0078
EF8078
E7C078
E3E078
E1F078
E0F878
E07C78
E03E78
E01F78
E00FF8
E007F8
E003F8
E000F8
E00078
E00030
000000
00F000
006000
006000
002000
ENDCHAR
STARTCHAR Ncaron
ENCODING 327
SWIDTH 873 0
DWIDTH 24 0
BBX 21 25 2 0
BITMAP
030C00
019800
00D800
007000
000000
E00078
F00078
F80078
FC0078
FE0078
FF0078
EF8078
E7C078
E3E078
E1F078
E0F878
E07C78
E03E78
E01F78
E00FF8
E007F8
E003F8
E000F8
E00078
E00030
ENDCHAR
STARTCHAR ncaron
ENCODING 328
SWIDTH 873 0
DWIDTH 24 0
BBX 21 25 2 0
BITMAP
030C00
019800
00D800
007000
000000
E00078
F00078
F80078
FC0078
FE0078
FF0078
EF8078
E7C078
E3E078
E1F078
E0F878
E07C78
E03E78
E01F78
E00FF8
E007F8
E003F8
E000F8
E00078
E00030
ENDCHAR
STARTCHAR Eng
ENCODING 330
SWIDTH 873 0
DWIDTH 24 0
BBX 21 26 2 -6
BITMAP
E00078
F00078
F80078
FC0078
FE0078
FF0078
EF8078
E7C078
E3E078
E1F078
E0F878
E07C78
E03E78
E01F78
E00FF8
E007F8
E003F8
E001F8
E000F8
E00078
0000F0
0003F0
00FFE0
00FFC0
00FF00
00E000
ENDCHAR
STARTCHAR eng
ENCODING 331
SWIDTH 873 0
DWIDTH 24 0
BBX 21 26 2 -6
BITMAP
E00078
F00078
F80078
FC0078
FE0078
FF0078
EF8078
E7C078
E3E078
E1F078
E0F878
E07C78
E03E78
E01F78
E00FF8
E007F8
E003F8
E001F8
E000F8
E00078
0000F0
0003F0
00FFE0
00FFC0
00FF00
00E000
ENDCHAR
STARTCHAR Omacron
ENCODING 332
SWIDTH 968 0
DWIDTH 27 0
BBX 25 24 1 0
BITMAP
007F0000
007F0000
00000000
00000000
01FFC000
07FFF800
1FFFFC00
3FFFFE00
3E001F00
78000F00
78000F00
F0000780
F0000780
F0000780
F0000780
F0000780
F0000780
78000F00
78000F00
3E001E00
3FFFFE00
1FFFFC00
07FFF000
01FFC000
ENDCHAR
STARTCHAR omacron
ENCODING 333
SWIDTH 968 0
DWIDTH 27 0
BBX 25 24 1 0
BITMAP
007F0000
007F0000
00000000
00000000
01FFC000
07FFF800
1FFFFC00
3FFFFE00
3E001F00
78000F00
78000F00
F0000780
F0000780
F0000780
F0000780
F0000780
F0000780
78000F00
78000F00
3E001E00
3FFFFE00
1FFFFC00
07FFF000
01FFC000
ENDCHAR
STARTCHAR Obreve
ENCODING 334
SWIDTH 968 0
DWIDTH 27 0
BBX 25 25 1 0
BITMAP
00630000
00630000
00630000
003E0000
00000000
01FFC000
07FFF800
1FFFFC00
3FFFFE00
3E001F00
78000F00
78000F00
F0000780
F0000780
F0000780
F0000780
F0000780
F0000780
78000F00
78000F00
3E001E00
3FFFFE00
1FFFFC00
07FFF000
01FFC000
ENDCHAR
STARTCHAR obreve
ENCODING 335
SWIDTH 968 0
DWIDTH 27 0
BBX 25 25 1 0
BITMAP
00630000
00630000
00630000
003E0000
00000000
01FFC000
07FFF800
1FFFFC00
3FFFFE00
3E001F00
78000F00
78000F00
F0000780
F0000780
F0000780
F0000780
F0000780
F0000780
78000F00
78000F00
3E001E00
3FFFFE00
1FFFFC00
07FFF000
01FFC000
ENDCHAR
STARTCHAR Ohungarumlaut
ENCODING 336
SWIDTH 968 0
DWIDTH 27 0
BBX 25 26 1 0
BITMAP
0019C000
00398000
00330000
00630000
00000000
00000000
01FFC000
07FFF800
1FFFFC00
3FFFFE00
3E001F00
78000F00
78000F00
F0000780
F0000780
F0000780
F0000780
F0000780
F0000780
78000F00
78000F00
3E001E00
3FFFFE00
1FFFFC00
07FFF000
01FFC000
ENDCHAR
STARTCHAR ohungarumlaut
ENCODING 337
SWIDTH 968 0
DWIDTH 27 0
BBX 25 26 1 0
BITMAP
0019C000
00398000
00330000
00630000
00000000
00000000
01FFC000
07FFF800
1FFFFC00
3FFFFE00
3E001F00
78000F00
78000F00
F0000780
F0000780
F0000780
F0000780
F0000780
F0000780
78000F00
78000F00
3E001E00
3FFFFE00
1FFFFC00
07FFF000
01FFC000
ENDCHAR
STARTCHAR OE
ENCODING 338
SWIDTH 1304 0
DWIDTH 37 0
BBX 34 20 1 0
BITMAP
01FFFFFFC0
07FFFFFFC0
1FFFFFFFC0
3FFFFFFFC0
3E00700000
7800700000
7800700000
F000700000
F00071FF80
F00071FF80
F00071FF80
F00071FF80
F000700000
7800700000
7800700000
3E00700000
3FFFFFFFC0
1FFFFFFFC0
07FFFFFFC0
01FFFFFFC0
ENDCHAR
STARTCHAR oe
ENCODING 339
SWIDTH 1304 0
DWIDTH 37 0
BBX 34 20 1 0
BITMAP
01FFFFFFC0
07FFFFFFC0
1FFFFFFFC0
3FFFFFFFC0
3E00700000
7800700000
7800700000
F000700000
F00071FF80
F00071FF80
F00071FF80
F00071FF80
F000700000
7800700000
7800700000
3E00700000
3FFFFFFFC0
1FFFFFFFC0
07FFFFFFC0
01FFFFFFC0
ENDCHAR
STARTCHAR Racute
ENCODING 340
SWIDTH 921 0
DWIDTH 26 0
BBX 24 25 2 0
BITMAP
000400
007C00
01F800
010000
000000
FFFF80
FFFFE0
FFFFF0
FFFFF8
E00078
E0003C
E0003C
E0003C
E0003C
E0003C
E00078
E3FFF8
E3FFF0
E3FFE0
E3FFC0
E003E0
E001F0
E000F8
E0007C
E0003F
ENDCHAR
STARTCHAR racute
ENCODING 341
SWIDTH 921 0
DWIDTH 26 0
BBX 24 25 2 0
BITMAP
000400
007C00
01F800
010000
000000
FFFF80
FFFFE0
FFFFF0
FFFFF8
E00078
E0003C
E0003C
E0003C
E0003C
E0003C
E00078
E3FFF8
E3FFF0
E3FFE0
E3FFC0
E003E0
E001F0
E000F8
E0007C
E0003F
ENDCHAR
STARTCHAR Rcommaaccent
ENCODING 342
SWIDTH 921 0
DWIDTH 26 0
BBX 24 25 2 -5
BITMAP
FFFF80
FFFFE0
FFFFF0
FFFFF8
E00078
E0003C
E0003C
E0003C
E0003C
E0003C
E00078
E3FFF8
E3FFF0
E3FFE0
E3FFC0
E003E0
E001F0
E000F8
E0007C
E0003F
000000
007800
003000
003000
002000
ENDCHAR
STARTCHAR rcommaaccent
ENCODING 343
SWIDTH 921 0
DWIDTH 26 0
BBX 24 25 2 -5
BITMAP
FFFF80
FFFFE0
FFFFF0
FFFFF8
E00078
E0003C
E0003C
E0003C
E0003C
E0003C
E00078
E3FFF8
E3FFF0
E3FFE0
E3FFC0
E003E0
E001F0
E000F8
E0007C
E0003F
000000
007800
003000
003000
002000
ENDCHAR
STARTCHAR Rcaron
ENCODING 344
SWIDTH 921 0
DWIDTH 26 0
BBX 24 25 2 0
BITMAP
030C00
019800
01B000
00E000
000000
FFFF80
FFFFE0
FFFFF0
FFFFF8
E00078
E0003C
E0003C
E0003C
E0003C
E0003C
E00078
E3FFF8
E3FFF0
E3FFE0
E3FFC0
E003E0
E001F0
E000F8
E0007C
E0003F
ENDCHAR
STARTCHAR rcaron
ENCODING 345
SWIDTH 921 0
DWIDTH 26 0
BBX 24 25 2 0
BITMAP
030C00
019800
01B000
00E000
000000
FFFF80
FFFFE0
FFFFF0
FFFFF8
E00078
E0003C
E0003C
E0003C
E0003C
E0003C
E00078
E3FFF8
E3FFF0
E3FFE0
E3FFC0
E003E0
E001F0
E000F8
E0007C
E0003F
ENDCHAR
STARTCHAR Sacute
ENCODING 346
SWIDTH 880 0
DWIDTH 25 0
BBX 22 25 1 0
BITMAP
000300
001F00
007E00
004000
000000
0FFFF8
3FFFF8
7FFFF8
7FFFF8
780000
F00000
F00000
780000
7FFFE0
3FFFF8
1FFFFC
03FFFC
00001C
00001C
00001C
00003C
7FFFFC
7FFFF8
7FFFF8
7FFFE0
ENDCHAR
STARTCHAR sacute
ENCODING 347
SWIDTH 880 0
DWIDTH 25 0
BBX 22 25 1 0
BITMAP
000300
001F00
007E00
004000
000000
0FFFF8
3FFFF8
7FFFF8
7FFFF8
780000
F00000
F00000
780000
7FFFE0
3FFFF8
1FFFFC
03FFFC
00001C
00001C
00001C
00003C
7FFFFC
7FFFF8
7FFFF8
7FFFE0
ENDCHAR
STARTCHAR Scedilla
ENCODING 350
SWIDTH 880 0
DWIDTH 25 0
BBX 22 25 1 -5
BITMAP
0FFFF8
3FFFF8
7FFFF8
7FFFF8
780000
F00000
F00000
780000
7FFFE0
3FFFF8
1FFFFC
03FFFC
00001C
00001C
00001C
00003C
7FFFFC
7FFFF8
7FFFF8
7FFFE0
000000
007800
003800
001000
001000
ENDCHAR
STARTCHAR scedilla
ENCODING 351
SWIDTH 880 0
DWIDTH 25 0
BBX 22 25 1 -5
BITMAP
0FFFF8
3FFFF8
7FFFF8
7FFFF8
780000
F00000
F00000
780000
7FFFE0
3FFFF8
1FFFFC
03FFFC
00001C
00001C
00001C
00003C
7FFFFC
7FFFF8
7FFFF8
7FFFE0
000000
007800
003800
001000
001000
ENDCHAR
STARTCHAR Scaron
ENCODING 352
SWIDTH 880 0
DWIDTH 25 0
BBX 22 25 1 0
BITMAP
00C600
00C600
006C00
003800
000000
0FFFF8
3FFFF8
7FFFF8
7FFFF8
780000
F00000
F00000
780000
7FFFE0
3FFFF8
1FFFFC
03FFFC
00001C
00001C
00001C
00003C
7FFFFC
7FFFF8
7FFFF8
7FFFE0
ENDCHAR
STARTCHAR scaron
ENCODING 353
SWIDTH 880 0
DWIDTH 25 0
BBX 22 25 1 0
BITMAP
00C600
00C600
006C00
003800
000000
0FFFF8
3FFFF8
7FFFF8
7FFFF8
780000
F00000
F00000
780000
7FFFE0
3FFFF8
1FFFFC
03FFFC
00001C
00001C
00001C
00003C
7FFFFC
7FFFF8
7FFFF8
7FFFE0
ENDCHAR
STARTCHAR Tcommaaccent
ENCODING 354
SWIDTH 720 0
DWIDTH 20 0
BBX 19 25 1 -5
BITMAP
FFFFE0
FFFFE0
FFFFE0
FFFFE0
01E000
01E000
01E000
01E000
01E000
01E000
01E000
01E000
01E000
01E000
01E000
01E000
01E000
01E000
01E000
01E000
000000
01E000
00C000
00C000
004000
ENDCHAR
STARTCHAR tcommaaccent
ENCODING 355
SWIDTH 720 0
DWIDTH 20 0
BBX 19 25 1 -5
BITMAP
FFFFE0
FFFFE0
FFFFE0
FFFFE0
01E000
01E000
01E000
01E000
01E000
01E000
01E000
01E000
01E000
01E000
01E000
01E000
01E000
01E000
01E000
01E000
000000
01E000
00C000
00C000
004000
ENDCHAR
STARTCHAR Tcaron
ENCODING 356
SWIDTH 720 0
DWIDTH 20 0
BBX 19 25 1 0
BITMAP
061800
033000
01A000
01E000
000000
FFFFE0
FFFFE0
FFFFE0
FFFFE0
01E000
01E000
01E000
01E000
01E000
01E000
01E000
01E000
01E000
01E000
01E000
01E000
01E000
01E000
01E000
01E000
ENDCHAR
STARTCHAR tcaron
ENCODING 357
SWIDTH 720 0
DWIDTH 20 0
BBX 19 25 1 0
BITMAP
061800
033000
01A000
01E000
000000
FFFFE0
FFFFE0
FFFFE0
FFFFE0
01E000
01E000
01E000
01E000
01E000
01E000
01E000
01E000
01E000
01E000
01E000
01E000
01E000
01E000
01E000
01E000
ENDCHAR
STARTCHAR Tbar
ENCODING 358
SWIDTH 720 0
DWIDTH 20 0
BBX 19 20 1 0
BITMAP
FFFFE0
FFFFE0
FFFFE0
FFFFE0
01E000
01E000
01E000
01E000
01E000
01E000
01E000
0FFC00
0FFC00
01E000
01E000
01E000
01E000
01E000
01E000
01E000
ENDCHAR
STARTCHAR tbar
ENCODING 359
SWIDTH 720 0
DWIDTH 20 0
BBX 19 20 1 0
BITMAP
FFFFE0
FFFFE0
FFFFE0
FFFFE0
01E000
01E000
01E000
01E000
01E000
01E000
01E000
0FFC00
0FFC00
01E000
01E000
01E000
01E000
01E000
01E000
01E000
ENDCHAR
STARTCHAR Utilde
ENCODING 360
SWIDTH 889 0
DWIDTH 25 0
BBX 22 24 1 0
BITMAP
00E200
009E00
000000
000000
F0001C
F0001C
F0001C
F0001C
F0001C
F0001C
F0001C
F0001C
F0001C
F0001C
F0001C
F0001C
70001C
78001C
78003C
7C007C
3FFFF8
1FFFF0
0FFFE0
03FF00
ENDCHAR
STARTCHAR utilde
ENCODING 361
SWIDTH 889 0
DWIDTH 25 0
BBX 22 24 1 0
BITMAP
00E200
009E00
000000
000000
F0001C
F0001C
F0001C
F0001C
F0001C
F0001C
F0001C
F0001C
F0001C
F0001C
F0001C
F0001C
70001C
78001C
78003C
7C007C
3FFFF8
1FFFF0
0FFFE0
03FF00
ENDCHAR
STARTCHAR Umacron
ENCODING 362
SWIDTH 889 0
DWIDTH 25 0
BBX 22 24 1 0
BITMAP
00FE00
00FE00
000000
000000
F0001C
F0001C
F0001C
F0001C
F0001C
F0001C
F0001C
F0001C
F0001C
F0001C
F0001C
F0001C
70001C
78001C
78003C
7C007C
3FFFF8
1FFFF0
0FFFE0
03FF00
ENDCHAR
STARTCHAR umacron
ENCODING 363
SWIDTH 889 0
DWIDTH 25 0
BBX 22 24 1 0
BITMAP
00FE00
00FE00
000000
000000
F0001C
F0001C
F0001C
F0001C
F0001C
F0001C
F0001C
F0001C
F0001C
F0001C
F0001C
F0001C
70001C
78001C
78003C
7C007C
3FFFF8
1FFFF0
0FFFE0
03FF00
ENDCHAR
STARTCHAR Ubreve
ENCODING 364
SWIDTH 889 0
DWIDTH 25 0
BBX 22 25 1 0
BITMAP
008600
00C600
00C600
007C00
000000
F0001C
F0001C
F0001C
F0001C
F0001C
F0001C
F0001C
F0001C
F0001C
F0001C
F0001C
F0001C
70001C
78001C
78003C
7C007C
3FFFF8
1FFFF0
0FFFE0
03FF00
ENDCHAR
STARTCHAR ubreve
ENCODING 365
SWIDTH 889 0
DWIDTH 25 0
BBX 22 25 1 0
BITMAP
008600
00C600
00C600
007C00
000000
F0001C
F0001C
F0001C
F0001C
F0001C
F0001C
F0001C
F0001C
F0001C
F0001C
F0001C
F0001C
70001C
78001C
78003C
7C007C
3FFFF8
1FFFF0
0FFFE0
03FF00
ENDCHAR
STARTCHAR Uring
ENCODING 366
SWIDTH 889 0
DWIDTH 25 0
BBX 22 27 1 0
BITMAP
007C00
008600
008200
008200
008600
007C00
000000
F0001C
F0001C
F0001C
F0001C
F0001C
F0001C
F0001C
F0001C
F0001C
F0001C
F0001C
F0001C
70001C
78001C
78003C
7C007C
3FFFF8
1FFFF0
0FFFE0
03FF00
ENDCHAR
STARTCHAR uring
ENCODING 367
SWIDTH 889 0
DWIDTH 25 0
BBX 22 27 1 0
BITMAP
007C00
008600
008200
008200
008600
007C00
000000
F0001C
F0001C
F0001C
F0001C
F0001C
F0001C
F0001C
F0001C
F0001C
F0001C
F0001C
F0001C
70001C
78001C
78003C
7C007C
3FFFF8
1FFFF0
0FFFE0
03FF00
ENDCHAR
STARTCHAR Uhungarumlaut
ENCODING 368
SWIDTH 889 0
DWIDTH 25 0
BBX 22 26 1 0
BITMAP
003380
006300
006600
00C600
000000
000000
F0001C
F0001C
F0001C
F0001C
F0001C
F0001C
F0001C
F0001C
F0001C
F0001C
F0001C
F0001C
70001C
78001C
78003C
7C007C
3FFFF8
1FFFF0
0FFFE0
03FF00
ENDCHAR
STARTCHAR uhungarumlaut
ENCODING 369
SWIDTH 889 0
DWIDTH 25 0
BBX 22 26 1 0
BITMAP
003380
006300
006600
00C600
000000
000000
F0001C
F0001C
F0001C
F0001C
F0001C
F0001C
F0001C
F0001C
F0001C
F0001C
F0001C
F0001C
70001C
78001C
78003C
7C007C
3FFFF8
1FFFF0
0FFFE0
03FF00
ENDCHAR
STARTCHAR Uogonek
ENCODING 370
SWIDTH 889 0
DWIDTH 25 0
BBX 22 25 1 -5
BITMAP
F0001C
F0001C
F0001C
F0001C
F0001C
F0001C
F0001C
F0001C
F0001C
F0001C
F0001C
F0001C
70001C
78001C
78003C
7C007C
3FFFF8
1FFFF0
0FFFE0
03FF80
001800
003000
006000
007C00
007C00
ENDCHAR
STARTCHAR uogonek
ENCODING 371
SWIDTH 889 0
DWIDTH 25 0
BBX 22 25 1 -5
BITMAP
F0001C
F0001C
F0001C
F0001C
F0001C
F0001C
F0001C
F0001C
F0001C
F0001C
F0001C
F0001C
70001C
78001C
78003C
7C007C
3FFFF8
1FFFF0
0FFFE0
03FF80
001800
003000
006000
007C00
007C00
ENDCHAR
STARTCHAR Wcircumflex
ENCODING 372
SWIDTH 1268 0
DWIDTH 36 0
BBX 35 25 0 0
BITMAP
0000E00000
0001B00000
0001980000
00030C0000
0000000000
F81E0001E0
781F0003C0
3C0F0003C0
3E07800780
1E07800780
1F03C00F00
0F03C00E00
0781E01E00
0781E03C00
03C0F03C00
03C0F07800
01E1F87800
01E3F8F000
00F3FCF000
00FFBDE000
007F1FC000
003F0FC000
003E0F8000
001E078000
001C070000
ENDCHAR
STARTCHAR wcircumflex
ENCODING 373
SWIDTH 1268 0
DWIDTH 36 0
BBX 35 25 0 0
BITMAP
0000E00000
0001B00000
0001980000
00030C0000
0000000000
F81E0001E0
781F0003C0
3C0F0003C0
3E07800780
1E07800780
1F03C00F00
0F03C00E00
0781E01E00
0781E03C00
03C0F03C00
03C0F07800
01E1F87800
01E3F8F000
00F3FCF000
00FFBDE000
007F1FC000
003F0FC000
003E0F8000
001E078000
001C070000
ENDCHAR
STARTCHAR Ycircumflex
ENCODING 374
SWIDTH 926 0
DWIDTH 26 0
BBX 26 25 0 0
BITMAP
001E0000
001E0000
00330000
00618000
00000000
FC0007C0
3C000F00
1E001E00
1F003E00
0F807C00
07C0F800
03E0F000
01E1E000
00F3C000
007F8000
007F0000
003F0000
001E0000
001E0000
001E0000
001E0000
001E0000
001E0000
001E0000
001E0000
ENDCHAR
STARTCHAR ycircumflex
ENCODING 375
SWIDTH 926 0
DWIDTH 26 0
BBX 26 25 0 0
BITMAP
001E0000
001E0000
00330000
00618000
00000000
FC0007C0
3C000F00
1E001E00
1F003E00
0F807C00
07C0F800
03E0F000
01E1E000
00F3C000
007F8000
007F0000
003F0000
001E0000
001E0000
001E0000
001E0000
001E0000
001E0000
001E0000
001E0000
ENDCHAR
STARTCHAR Ydieresis
ENCODING 376
SWIDTH 926 0
DWIDTH 26 0
BBX 26 24 0 0
BITMAP
00738000
00738000
00000000
00000000
FC0007C0
3C000F00
1E001E00
1F003E00
0F807C00
07C0F800
03E0F000
01E1E000
00F3C000
007F8000
007F0000
003F0000
001E0000
001E0000
001E0000
001E0000
001E0000
001E0000
001E0000
001E0000
ENDCHAR
STARTCHAR Zacute
ENCODING 377
SWIDTH 802 0
DWIDTH 22 0
BBX 20 25 1 0
BITMAP
000600
003E00
01F800
018000
000000
FFFFF0
FFFFF0
FFFFF0
FFFFE0
0007C0
000F80
001F00
003E00
007C00
00F800
01F000
03E000
07C000
0F8000
1F0000
3E0000
7FFFF0
FFFFF0
FFFFF0
7FFFF0
ENDCHAR
STARTCHAR zacute
ENCODING 378
SWIDTH 802 0
DWIDTH 22 0
BBX 20 25 1 0
BITMAP
000600
003E00
01F800
018000
000000
FFFFF0
FFFFF0
FFFFF0
FFFFE0
0007C0
000F80
001F00
003E00
007C00
00F800
01F000
03E000
07C000
0F8000
1F0000
3E0000
7FFFF0
FFFFF0
FFFFF0
7FFFF0
ENDCHAR
STARTCHAR Zdotaccent
ENCODING 379
SWIDTH 802 0
DWIDTH 22 0
BBX 20 24 1 0
BITMAP
007000
006000
000000
000000
FFFFF0
FFFFF0
FFFFF0
FFFFE0
0007C0
000F80
001F00
003E00
007C00
00F800
01F000
03E000
07C000
0F8000
1F0000
3E0000
7FFFF0
FFFFF0
FFFFF0
7FFFF0
ENDCHAR
STARTCHAR zdotaccent
ENCODING 380
SWIDTH 802 0
DWIDTH 22 0
BBX 20 24 1 0
BITMAP
007000
006000
000000
000000
FFFFF0
FFFFF0
FFFFF0
FFFFE0
0007C0
000F80
001F00
003E00
007C00
00F800
01F000
03E000
07C000
0F8000
1F0000
3E0000
7FFFF0
FFFFF0
FFFFF0
7FFFF0
ENDCHAR
STARTCHAR Zcaron
ENCODING 381
SWIDTH 802 0
DWIDTH 22 0
BBX 20 25 1 0
BITMAP
030C00
019800
00B000
00F000
000000
FFFFF0
FFFFF0
FFFFF0
FFFFE0
0007C0
000F80
001F00
003E00
007C00
00F800
01F000
03E000
07C000
0F8000
1F0000
3E0000
7FFFF0
FFFFF0
FFFFF0
7FFFF0
ENDCHAR
STARTCHAR zcaron
ENCODING 382
SWIDTH 802 0
DWIDTH 22 0
BBX 20 25 1 0
BITMAP
030C00
019800
00B000
00F000
000000
FFFFF0
FFFFF0
FFFFF0
FFFFE0
0007C0
000F80
001F00
003E00
007C00
00F800
01F000
03E000
07C000
0F8000
1F0000
3E0000
7FFFF0
FFFFF0
FFFFF0
7FFFF0
ENDCHAR
STARTCHAR Scommaaccent
ENCODING 536
SWIDTH 880 0
DWIDTH 25 0
BBX 22 25 1 -5
BITMAP
0FFFF8
3FFFF8
7FFFF8
7FFFF8
780000
F00000
F00000
780000
7FFFE0
3FFFF8
1FFFFC
03FFFC
00001C
00001C
00001C
00003C
7FFFFC
7FFFF8
7FFFF8
7FFFE0
000000
007800
003800
001000
001000
ENDCHAR
STARTCHAR scommaaccent
ENCODING 537
SWIDTH 880 0
DWIDTH 25 0
BBX 22 25 1 -5
BITMAP
0FFFF8
3FFFF8
7FFFF8
7FFFF8
780000
F00000
F00000
780000
7FFFE0
3FFFF8
1FFFFC
03FFFC
00001C
00001C
00001C
00003C
7FFFFC
7FFFF8
7FFFF8
7FFFE0
000000
007800
003800
001000
001000
ENDCHAR
STARTCHAR uni021A
ENCODING 538
SWIDTH 720 0
DWIDTH 20 0
BBX 19 25 1 -5
BITMAP
FFFFE0
FFFFE0
FFFFE0
FFFFE0
01E000
01E000
01E000
01E000
01E000
01E000
01E000
01E000
01E000
01E000
01E000
01E000
01E000
01E000
01E000
01E000
000000
01E000
00C000
00C000
004000
ENDCHAR
STARTCHAR uni021B
ENCODING 539
SWIDTH 720 0
DWIDTH 20 0
BBX 19 25 1 -5
BITMAP
FFFFE0
FFFFE0
FFFFE0
FFFFE0
01E000
01E000
01E000
01E000
01E000
01E000
01E000
01E000
01E000
01E000
01E000
01E000
01E000
01E000
01E000
01E000
000000
01E000
00C000
00C000
004000
ENDCHAR
ENDFONT
